<svg width="121" height="40" viewBox="0 0 121 40" fill="none" xmlns="http://www.w3.org/2000/svg">
<path d="M110.799 0.00013H10.1987C9.83204 0.00013 9.46974 0.00013 9.10401 0.00213C8.79786 0.00413 8.49415 0.00994 8.18506 0.01483C7.51358 0.0227318 6.84367 0.0818063 6.18116 0.19154C5.51959 0.303663 4.87874 0.515046 4.28028 0.81854C3.68256 1.1246 3.13641 1.5223 2.66163 1.9972C2.18437 2.47077 1.78653 3.01815 1.48341 3.61829C1.17946 4.21724 0.968703 4.85907 0.858413 5.52161C0.747073 6.18332 0.687161 6.85265 0.679213 7.52361C0.669933 7.83021 0.668952 8.13783 0.664062 8.44447V31.5587C0.668952 31.8692 0.669933 32.17 0.679213 32.4806C0.687163 33.1516 0.747076 33.8209 0.858413 34.4825C0.968398 35.1455 1.17917 35.7877 1.48341 36.3868C1.78639 36.985 2.18428 37.5302 2.66163 38.0011C3.13461 38.4781 3.68111 38.8761 4.28028 39.1798C4.87873 39.4841 5.51951 39.6968 6.18116 39.8106C6.84378 39.9195 7.51362 39.9786 8.18506 39.9874C8.49415 39.9942 8.79786 39.9981 9.10401 39.9981C9.46973 40.0001 9.83206 40.0001 10.1987 40.0001H110.799C111.158 40.0001 111.523 40.0001 111.883 39.9981C112.188 39.9981 112.5 39.9942 112.805 39.9874C113.475 39.9791 114.143 39.92 114.805 39.8106C115.469 39.696 116.112 39.4834 116.713 39.1798C117.312 38.8759 117.858 38.478 118.33 38.0011C118.806 37.5284 119.205 36.9836 119.512 36.3868C119.814 35.7872 120.022 35.1451 120.131 34.4825C120.242 33.8208 120.304 33.1516 120.316 32.4806C120.32 32.17 120.32 31.8692 120.32 31.5587C120.328 31.1954 120.328 30.8341 120.328 30.4649V9.53626C120.328 9.17005 120.328 8.80677 120.32 8.44447C120.32 8.13783 120.32 7.83021 120.316 7.52357C120.304 6.85255 120.242 6.18337 120.131 5.52157C120.022 4.85941 119.813 4.21763 119.512 3.61825C118.894 2.41533 117.916 1.43616 116.713 0.81845C116.112 0.515697 115.468 0.30437 114.805 0.19145C114.144 0.0812328 113.475 0.0221378 112.805 0.01469C112.5 0.00981 112.188 0.00395 111.883 0.002C111.523 0 111.158 0.00013 110.799 0.00013Z" fill="#A6A6A6"/>
<path d="M9.10893 39.125C8.80425 39.125 8.50693 39.1211 8.20464 39.1143C7.57842 39.1061 6.95367 39.0516 6.3355 38.9512C5.75909 38.8519 5.2007 38.6673 4.67876 38.4033C4.1616 38.1415 3.68991 37.7983 3.28176 37.3867C2.8677 36.98 2.52298 36.5082 2.26125 35.9902C1.99664 35.4688 1.81351 34.9099 1.71825 34.333C1.61537 33.7131 1.55971 33.0863 1.55175 32.458C1.54541 32.2471 1.53711 31.5449 1.53711 31.5449V8.44434C1.53711 8.44434 1.54595 7.75293 1.5518 7.5498C1.55943 6.92248 1.61476 6.29665 1.71733 5.67773C1.81277 5.09925 1.99604 4.53875 2.26079 4.01563C2.52155 3.49794 2.86436 3.02586 3.27593 2.61768C3.68703 2.20562 4.16023 1.8606 4.67827 1.59521C5.19901 1.33209 5.75634 1.14873 6.33159 1.05127C6.95179 0.949836 7.57871 0.894996 8.2071 0.88721L9.10942 0.875H111.878L112.791 0.8877C113.414 0.895099 114.035 0.94945 114.649 1.05029C115.231 1.14898 115.794 1.33362 116.32 1.59814C117.358 2.13299 118.203 2.97916 118.735 4.01807C118.996 4.53758 119.176 5.09351 119.271 5.66699C119.374 6.29099 119.432 6.92174 119.444 7.5542C119.447 7.8374 119.447 8.1416 119.447 8.44434C119.455 8.81934 119.455 9.17627 119.455 9.53613V30.4648C119.455 30.8281 119.455 31.1826 119.447 31.54C119.447 31.8652 119.447 32.1631 119.443 32.4697C119.432 33.0909 119.375 33.7104 119.272 34.3232C119.179 34.9043 118.997 35.4675 118.732 35.9932C118.469 36.5056 118.126 36.9733 117.717 37.3789C117.308 37.7927 116.836 38.1379 116.317 38.4014C115.792 38.6674 115.23 38.8527 114.649 38.9512C114.031 39.0522 113.407 39.1067 112.78 39.1143C112.487 39.1211 112.181 39.125 111.883 39.125L110.799 39.127L9.10893 39.125Z" fill="black"/>
<path d="M43.6516 11.5675H41.0802V12.1992H43.0071C42.9547 12.7147 42.7481 13.1194 42.3997 13.4133C42.0512 13.7073 41.6063 13.8549 41.0802 13.8549C40.5031 13.8549 40.0141 13.6553 39.6134 13.2588C39.2208 12.8541 39.0211 12.3537 39.0211 11.7508C39.0211 11.1479 39.2208 10.6475 39.6134 10.2428C40.0141 9.84632 40.5031 9.64805 41.0802 9.64805C41.3763 9.64805 41.6587 9.69862 41.9176 9.8094C42.1766 9.92009 42.3845 10.0746 42.547 10.2729L43.036 9.78752C42.8142 9.53727 42.5333 9.34591 42.1848 9.20644C41.8363 9.06696 41.4727 9.00002 41.0802 9.00002C40.3103 9.00002 39.6575 9.26524 39.1244 9.79435C38.5914 10.3248 38.3242 10.9783 38.3242 11.7508C38.3242 12.5232 38.5914 13.1781 39.1244 13.7073C39.6575 14.2363 40.3103 14.5016 41.0802 14.5016C41.8887 14.5016 42.5333 14.2445 43.0291 13.7222C43.4657 13.2875 43.6888 12.6996 43.6888 11.9641C43.6888 11.8397 43.6737 11.707 43.6516 11.5675ZM44.6478 9.11754V14.384H47.7453V13.7373H45.3295V12.0666H47.5085V11.435H45.3295V9.76565H47.7453V9.11754H44.6478ZM52.0891 9.76565V9.11754H48.4433V9.76565H49.9253V14.384H50.607V9.76565H52.0891ZM55.3898 9.11754H54.7081V14.384H55.3898V9.11754ZM59.8898 9.76565V9.11754H56.2441V9.76565H57.7261V14.384H58.4078V9.76565H59.8898ZM66.7695 9.80257C66.2434 9.26524 65.5988 9.00002 64.8289 9.00002C64.0576 9.00002 63.413 9.26524 62.8869 9.79435C62.3607 10.3166 62.1018 10.9715 62.1018 11.7508C62.1018 12.53 62.3607 13.185 62.8869 13.7073C63.413 14.2363 64.0576 14.5016 64.8289 14.5016C65.5919 14.5016 66.2434 14.2363 66.7695 13.7073C67.2957 13.185 67.5546 12.53 67.5546 11.7508C67.5546 10.9783 67.2957 10.3248 66.7695 9.80257ZM63.3758 10.2428C63.7684 9.84632 64.2504 9.64805 64.8289 9.64805C65.406 9.64805 65.8881 9.84632 66.2737 10.2428C66.6662 10.6324 66.859 11.141 66.859 11.7508C66.859 12.362 66.6662 12.8691 66.2737 13.2588C65.8881 13.6553 65.406 13.8549 64.8289 13.8549C64.2504 13.8549 63.7684 13.6553 63.3758 13.2588C62.9915 12.861 62.7987 12.362 62.7987 11.7508C62.7987 11.141 62.9915 10.6406 63.3758 10.2428ZM69.1743 11.1041L69.1454 10.0883H69.1743L71.8711 14.384H72.5832V9.11754H71.9014V12.1992L71.9303 13.2151H71.9014L69.3231 9.11754H68.4926V14.384H69.1743V11.1041Z" fill="#D9D9D9"/>
<path d="M96.1354 29.259H97.7803V18.3201H96.1354V29.259ZM110.95 22.2608L109.065 27.0032H109.009L107.052 22.2608H105.28L108.215 28.8889L106.541 32.5762H108.257L112.78 22.2608H110.95ZM101.622 28.0166C101.084 28.0166 100.332 27.749 100.332 27.0876C100.332 26.2433 101.268 25.9197 102.076 25.9197C102.799 25.9197 103.14 26.0742 103.579 26.2854C103.451 27.2989 102.572 28.0166 101.622 28.0166ZM101.821 22.0215C100.63 22.0215 99.3969 22.5424 98.8865 23.6963L100.346 24.3013C100.658 23.6963 101.239 23.4994 101.849 23.4994C102.7 23.4994 103.565 24.0056 103.579 24.9066V25.019C103.281 24.8502 102.643 24.5969 101.863 24.5969C100.289 24.5969 98.6873 25.4551 98.6873 27.0595C98.6873 28.5232 99.9778 29.4662 101.423 29.4662C102.529 29.4662 103.14 28.9736 103.521 28.3964H103.579V29.2413H105.167V25.047C105.167 23.105 103.706 22.0215 101.821 22.0215ZM91.6557 23.5924H89.3163V19.8429H91.6557C92.8854 19.8429 93.5835 20.8533 93.5835 21.7176C93.5835 22.5653 92.8854 23.5924 91.6557 23.5924ZM91.6134 18.3201H87.6721V29.259H89.3163V25.1148H91.6134C93.4363 25.1148 95.2284 23.805 95.2284 21.7176C95.2284 19.6306 93.4363 18.3201 91.6134 18.3201ZM70.1217 28.0186C68.9853 28.0186 68.0343 27.0739 68.0343 25.7775C68.0343 24.466 68.9853 23.5079 70.1217 23.5079C71.2435 23.5079 72.1239 24.466 72.1239 25.7775C72.1239 27.0739 71.2435 28.0186 70.1217 28.0186ZM72.0103 22.8733H71.9535C71.5844 22.4364 70.874 22.0417 69.9798 22.0417C68.1049 22.0417 66.3867 23.6771 66.3867 25.7775C66.3867 27.8635 68.1049 29.4846 69.9798 29.4846C70.874 29.4846 71.5844 29.0898 71.9535 28.639H72.0103V29.1742C72.0103 30.5985 71.2435 31.3594 70.008 31.3594C69.0001 31.3594 68.3753 30.6406 68.1194 30.0346L66.6853 30.6266C67.0968 31.613 68.19 32.8257 70.008 32.8257C71.9397 32.8257 73.5728 31.6978 73.5728 28.9487V22.2673H72.0103V22.8733ZM74.7092 29.259H76.3558V18.3201H74.7092V29.259ZM78.7843 25.6504C78.7419 24.2124 79.9068 23.4796 80.7442 23.4796C81.3977 23.4796 81.951 23.8039 82.1363 24.2688L78.7843 25.6504ZM83.8966 24.4096C83.5843 23.5784 82.6329 22.0417 80.6874 22.0417C78.7557 22.0417 77.1511 23.55 77.1511 25.7631C77.1511 27.8495 78.7419 29.4846 80.8716 29.4846C82.5898 29.4846 83.5843 28.4418 83.9964 27.8354L82.7182 26.9895C82.292 27.6098 81.7101 28.0186 80.8716 28.0186C80.0342 28.0186 79.4375 27.6379 79.0546 26.8908L84.067 24.8328L83.8966 24.4096ZM43.9586 23.1836V24.7623H47.7644C47.6508 25.6504 47.3525 26.2987 46.8981 26.7499C46.344 27.2995 45.4777 27.9058 43.9586 27.9058C41.6153 27.9058 39.7835 26.0311 39.7835 23.7051C39.7835 21.3792 41.6153 19.5042 43.9586 19.5042C45.2225 19.5042 46.1454 19.9977 46.8271 20.6321L47.9493 19.5182C46.9976 18.6161 45.7339 17.9254 43.9586 17.9254C40.7487 17.9254 38.0505 20.5193 38.0505 23.7051C38.0505 26.8908 40.7487 29.4846 43.9586 29.4846C45.6909 29.4846 46.9976 28.9207 48.0199 27.8635C49.0708 26.8203 49.3976 25.3543 49.3976 24.17C49.3976 23.8039 49.3689 23.4656 49.3122 23.1836H43.9586ZM53.7244 28.0186C52.5881 28.0186 51.6082 27.0882 51.6082 25.7631C51.6082 24.424 52.5881 23.5079 53.7244 23.5079C54.8603 23.5079 55.8402 24.424 55.8402 25.7631C55.8402 27.0882 54.8603 28.0186 53.7244 28.0186ZM53.7244 22.0417C51.6505 22.0417 49.9609 23.6064 49.9609 25.7631C49.9609 27.9058 51.6505 29.4846 53.7244 29.4846C55.7976 29.4846 57.4876 27.9058 57.4876 25.7631C57.4876 23.6064 55.7976 22.0417 53.7244 22.0417ZM61.9335 28.0186C60.798 28.0186 59.8177 27.0882 59.8177 25.7631C59.8177 24.424 60.798 23.5079 61.9335 23.5079C63.0698 23.5079 64.0494 24.424 64.0494 25.7631C64.0494 27.0882 63.0698 28.0186 61.9335 28.0186ZM61.9335 22.0417C59.8603 22.0417 58.1707 23.6064 58.1707 25.7631C58.1707 27.9058 59.8603 29.4846 61.9335 29.4846C64.0074 29.4846 65.6971 27.9058 65.6971 25.7631C65.6971 23.6064 64.0074 22.0417 61.9335 22.0417Z" fill="white"/>
<path d="M20.1352 20.0052L10.7505 29.8927C10.7508 29.8948 10.7515 29.8965 10.7519 29.8985C11.0397 30.9721 12.0276 31.7627 13.2 31.7627C13.6687 31.7627 14.1088 31.6369 14.4861 31.4161L14.5161 31.3987L25.0798 25.3479L20.1352 20.0052Z" fill="#EB3131"/>
<path d="M29.6295 18.3214L29.6206 18.3153L25.0599 15.6909L19.9219 20.2293L25.0778 25.3467L29.6144 22.7484C30.4097 22.3222 30.9496 21.4899 30.9496 20.5301C30.9496 19.5772 30.417 18.749 29.6295 18.3214Z" fill="#F6B60B"/>
<path d="M10.7501 11.1265C10.6937 11.333 10.6641 11.5493 10.6641 11.7739V29.2456C10.6641 29.4698 10.6934 29.6868 10.7505 29.8926L20.4581 20.258L10.7501 11.1265Z" fill="#5778C5"/>
<path d="M20.2042 20.5096L25.0617 15.6893L14.51 9.61659C14.1265 9.38857 13.6789 9.25697 13.1999 9.25697C12.0274 9.25697 11.0382 10.0489 10.7504 11.1239C10.75 11.1249 10.75 11.1256 10.75 11.1266L20.2042 20.5096Z" fill="#3BAD49"/>
</svg>
