<svg width="24" height="18" viewBox="0 0 24 18" fill="none" xmlns="http://www.w3.org/2000/svg">
<g clip-path="url(#clip0_172_261)">
<rect y="0.375" width="24" height="17.25" rx="3" fill="#FFDA2C"/>
<path d="M21.7143 0.375H2.28571C1.02335 0.375 0 1.40474 0 2.675V15.325C0 16.5953 1.02335 17.625 2.28571 17.625H21.7143C22.9767 17.625 24 16.5953 24 15.325V2.675C24 1.40474 22.9767 0.375 21.7143 0.375Z" fill="#FFDA2C"/>
<path fill-rule="evenodd" clip-rule="evenodd" d="M0 0.375L24 16.475L23.8594 17.74L0 17.625V0.375Z" fill="#1A47B8"/>
<path fill-rule="evenodd" clip-rule="evenodd" d="M1.14288 3.82495H2.28574V4.97495H1.14288V3.82495ZM4.57145 6.12495H5.71431V7.27495H4.57145V6.12495ZM8.00003 8.42495H9.14288V9.57495H8.00003V8.42495ZM11.4286 10.725H12.5715V11.875H11.4286V10.725ZM14.8572 13.025H16V14.175H14.8572V13.025ZM18.2857 15.325H19.4286V16.475H18.2857V15.325Z" fill="white"/>
</g>
<defs>
<clipPath id="clip0_172_261">
<rect y="0.375" width="24" height="17.25" rx="3" fill="white"/>
</clipPath>
</defs>
</svg>
