<svg width="24" height="18" viewBox="0 0 24 18" fill="none" xmlns="http://www.w3.org/2000/svg">
<rect y="0.375" width="24" height="17.25" rx="3" fill="#86C5FE"/>
<path d="M12 13.2633C11.7078 13.2633 11.4578 13.157 11.2499 12.9445C11.0416 12.732 10.9375 12.4797 10.9375 12.1875C10.9375 11.8953 11.0416 11.6451 11.2499 11.4368C11.4578 11.2289 11.7078 11.125 12 11.125L12.3187 10.8195C12.3896 10.7487 12.4716 10.6934 12.5647 10.6538C12.6575 10.6138 12.7526 10.5938 12.85 10.5938C13.0536 10.5938 13.2286 10.669 13.3749 10.8195C13.5208 10.9701 13.5938 11.1471 13.5938 11.3508V11.5766C13.5938 11.7536 13.6513 11.8997 13.7664 12.0148C13.8815 12.1299 14.0276 12.1875 14.2047 12.1875C14.3375 12.1875 14.457 12.1477 14.5633 12.068C14.6695 11.9883 14.7448 11.8865 14.7891 11.7625L14.9484 11.3242C15.0281 11.1117 15.1565 10.9368 15.3336 10.7993C15.5107 10.6623 15.7143 10.5938 15.9445 10.5938C16.0419 10.3458 16.1195 10.0891 16.1772 9.82344C16.2346 9.55781 16.2633 9.28333 16.2633 9C16.2633 8.21198 16.0664 7.49249 15.6725 6.84153C15.2783 6.19093 14.7625 5.67969 14.125 5.30781V5.8125C14.125 6.10469 14.0211 6.35473 13.8132 6.56263C13.6049 6.77087 13.3547 6.875 13.0625 6.875H12.5312V7.9375C12.5312 8.08802 12.4804 8.2141 12.3788 8.31575C12.2768 8.41775 12.1505 8.46875 12 8.46875H11.4688V9.37187C11.4688 9.56667 11.4023 9.73047 11.2695 9.86328C11.1367 9.99609 10.9729 10.0625 10.7781 10.0625C10.6542 10.0625 10.5414 10.0359 10.4397 9.98281C10.3377 9.92969 10.2557 9.85443 10.1937 9.75703L9.34375 8.46875H8.8125V9C8.8125 9.27448 8.71953 9.50911 8.53359 9.70391C8.34766 9.8987 8.1263 10.0138 7.86953 10.0492C8.09974 10.9701 8.59787 11.7359 9.36394 12.3469C10.1296 12.9578 11.0083 13.2633 12 13.2633ZM13.0625 10.0625C12.912 10.0625 12.7859 10.0115 12.6842 9.9095C12.5823 9.80785 12.5312 9.68177 12.5312 9.53125C12.5312 9.38073 12.5823 9.25447 12.6842 9.15247C12.7859 9.05082 12.912 9 13.0625 9H13.5938C13.7443 9 13.8705 9.05082 13.9725 9.15247C14.0742 9.25447 14.125 9.38073 14.125 9.53125C14.125 9.68177 14.0742 9.80785 13.9725 9.9095C13.8705 10.0115 13.7443 10.0625 13.5938 10.0625H13.0625ZM14.2977 8.46875C14.1206 8.46875 13.9812 8.40022 13.8796 8.26316C13.7776 8.12574 13.7531 7.97292 13.8062 7.80469L14.0055 7.22031C14.0409 7.11406 14.1029 7.02995 14.1914 6.96797C14.2799 6.90599 14.3773 6.875 14.4836 6.875C14.6607 6.875 14.8002 6.94353 14.9022 7.08059C15.0039 7.21801 15.0281 7.37083 14.975 7.53906L14.7758 8.12344C14.7404 8.22969 14.6784 8.3138 14.5898 8.37578C14.5013 8.43776 14.4039 8.46875 14.2977 8.46875ZM12 14.3125C11.2651 14.3125 10.5745 14.173 9.92813 13.8939C9.28177 13.6151 8.71953 13.2367 8.24141 12.7586C7.76328 12.2805 7.38468 11.7182 7.10559 11.0719C6.82686 10.4255 6.6875 9.7349 6.6875 9C6.6875 8.2651 6.82686 7.57448 7.10559 6.92813C7.38468 6.28177 7.76328 5.71953 8.24141 5.24141C8.71953 4.76328 9.28177 4.38468 9.92813 4.10559C10.5745 3.82686 11.2651 3.6875 12 3.6875C12.7349 3.6875 13.4255 3.82686 14.0719 4.10559C14.7182 4.38468 15.2805 4.76328 15.7586 5.24141C16.2367 5.71953 16.6153 6.28177 16.8944 6.92813C17.1731 7.57448 17.3125 8.2651 17.3125 9C17.3125 9.7349 17.1731 10.4255 16.8944 11.0719C16.6153 11.7182 16.2367 12.2805 15.7586 12.7586C15.2805 13.2367 14.7182 13.6151 14.0719 13.8939C13.4255 14.173 12.7349 14.3125 12 14.3125Z" fill="white"/>
</svg>
