<svg width="24" height="18" viewBox="0 0 24 18" fill="none" xmlns="http://www.w3.org/2000/svg">
<g clip-path="url(#clip0_172_255)">
<rect y="0.375" width="24" height="17.25" rx="3" fill="#F93939"/>
<path d="M21.7143 0.375H2.28571C1.02335 0.375 0 1.40474 0 2.675V15.325C0 16.5953 1.02335 17.625 2.28571 17.625H21.7143C22.9767 17.625 24 16.5953 24 15.325V2.675C24 1.40474 22.9767 0.375 21.7143 0.375Z" fill="#F93939"/>
<path fill-rule="evenodd" clip-rule="evenodd" d="M12 4.97495L10.2857 3.82495L9.14283 4.97495H10.2857L9.14283 6.12495L6.85712 4.97495V10.725L10.2857 9.57495L9.14283 11.875H7.99997L9.14283 13.025L10.2857 11.875L12 14.175V4.97495ZM13.7143 3.82495L14.8571 4.97495H13.7143L14.8571 6.12495L17.1428 4.97495V10.725L13.7143 9.57495L14.8571 11.875H16L14.8571 13.025L13.7143 11.875L12 14.175V4.97495L13.7143 3.82495Z" fill="#151515"/>
</g>
<defs>
<clipPath id="clip0_172_255">
<rect y="0.375" width="24" height="17.25" rx="3" fill="white"/>
</clipPath>
</defs>
</svg>
