<svg width="117" height="27" viewBox="0 0 117 27" fill="none" xmlns="http://www.w3.org/2000/svg">
<path d="M6.22009 20.4221V4.76794H0.164062V1.32835H16.4937V4.76794H10.4377V20.4221H6.22009Z" fill="#353535"/>
<path d="M22.8695 20.72C21.4096 20.72 20.1389 20.4311 19.0575 19.8534C17.9941 19.2575 17.165 18.427 16.5702 17.3617C15.9934 16.2964 15.705 15.0235 15.705 13.5429C15.705 12.0804 15.9934 10.8165 16.5702 9.75127C17.165 8.68599 17.9941 7.86446 19.0575 7.28669C20.1389 6.70891 21.4096 6.42002 22.8695 6.42002C24.3295 6.42002 25.6001 6.70891 26.6816 7.28669C27.763 7.86446 28.5921 8.68599 29.1689 9.75127C29.7637 10.8165 30.0611 12.0804 30.0611 13.5429C30.0611 15.0235 29.7637 16.2964 29.1689 17.3617C28.5921 18.427 27.763 19.2575 26.6816 19.8534C25.6001 20.4311 24.3295 20.72 22.8695 20.72ZM22.8695 17.6325C23.8068 17.6325 24.5457 17.2985 25.0865 16.6304C25.6452 15.9624 25.9246 14.9332 25.9246 13.5429C25.9246 12.1527 25.6452 11.1325 25.0865 10.4825C24.5457 9.83252 23.8068 9.50752 22.8695 9.50752C21.9323 9.50752 21.1843 9.83252 20.6255 10.4825C20.0848 11.1325 19.8145 12.1527 19.8145 13.5429C19.8145 14.9332 20.0848 15.9624 20.6255 16.6304C21.1843 17.2985 21.9323 17.6325 22.8695 17.6325Z" fill="#353535"/>
<path d="M39.2131 26.4888C37.8974 26.4888 36.7258 26.3534 35.6984 26.0825C34.6711 25.8297 33.7519 25.4415 32.9408 24.9179L33.7248 21.9929C34.2295 22.3179 34.7612 22.5797 35.3199 22.7784C35.8967 22.995 36.4825 23.1485 37.0773 23.2388C37.6901 23.3471 38.2939 23.4013 38.8887 23.4013C40.0963 23.4013 40.9975 23.1124 41.5923 22.5346C42.187 21.9568 42.4844 21.1353 42.4844 20.07V17.2263H42.7548C42.4664 18.0929 41.8897 18.7881 41.0245 19.3117C40.1594 19.8353 39.1861 20.0971 38.1046 20.0971C36.879 20.0971 35.8066 19.8172 34.8874 19.2575C33.9862 18.6978 33.2832 17.9034 32.7786 16.8742C32.2739 15.845 32.0216 14.6353 32.0216 13.245C32.0216 11.8547 32.2739 10.645 32.7786 9.61586C33.2832 8.58669 33.9862 7.80127 34.8874 7.2596C35.8066 6.69988 36.879 6.42002 38.1046 6.42002C39.2041 6.42002 40.1684 6.68183 40.9975 7.20544C41.8446 7.71099 42.4123 8.38808 42.7007 9.23669L42.4844 9.12835L42.7548 6.69085H46.702C46.6299 7.28669 46.5759 7.89155 46.5398 8.50544C46.5038 9.10127 46.4857 9.68808 46.4857 10.2659V19.6096C46.4857 21.8304 45.8639 23.5277 44.6203 24.7013C43.3766 25.8929 41.5742 26.4888 39.2131 26.4888ZM39.3212 17.0096C40.2765 17.0096 41.0335 16.6846 41.5923 16.0346C42.151 15.3846 42.4304 14.4547 42.4304 13.245C42.4304 12.0353 42.151 11.1145 41.5923 10.4825C41.0335 9.83252 40.2765 9.50752 39.3212 9.50752C38.3299 9.50752 37.5459 9.83252 36.9691 10.4825C36.4104 11.1145 36.131 12.0353 36.131 13.245C36.131 14.4547 36.4104 15.3846 36.9691 16.0346C37.5459 16.6846 38.3299 17.0096 39.3212 17.0096Z" fill="#353535"/>
<path d="M56.7002 20.72C54.3211 20.72 52.4646 20.079 51.1308 18.7971C49.7971 17.5152 49.1302 15.7728 49.1302 13.57C49.1302 12.1436 49.4096 10.8978 49.9683 9.83252C50.5451 8.76724 51.3381 7.93669 52.3475 7.34085C53.3748 6.72697 54.5734 6.42002 55.9432 6.42002C57.295 6.42002 58.4215 6.70891 59.3227 7.28669C60.2419 7.86446 60.9268 8.67697 61.3774 9.72419C61.846 10.7534 62.0804 11.954 62.0804 13.3263V14.2742H52.4826V12.2429H59.1064L58.6468 12.6221C58.6468 11.4846 58.4125 10.627 57.9439 10.0492C57.4933 9.45335 56.8354 9.15544 55.9703 9.15544C55.015 9.15544 54.276 9.50752 53.7533 10.2117C53.2486 10.9159 52.9963 11.927 52.9963 13.245V13.6784C52.9963 15.0145 53.3207 16.0075 53.9696 16.6575C54.6365 17.3075 55.5918 17.6325 56.8354 17.6325C57.5744 17.6325 58.2683 17.5422 58.9172 17.3617C59.584 17.1631 60.2149 16.8561 60.8097 16.4409L61.9452 19.1492C61.2603 19.6547 60.4672 20.0429 59.566 20.3138C58.6828 20.5846 57.7276 20.72 56.7002 20.72Z" fill="#353535"/>
<path d="M70.9988 20.72C69.2144 20.72 67.8717 20.2777 66.9705 19.3929C66.0693 18.4902 65.6187 17.145 65.6187 15.3575V9.75127H63.0232V6.69085H65.6187V3.33252L69.7011 2.33044V6.69085H73.2157V9.75127H69.7011V15.1409C69.7011 16.0075 69.8813 16.6034 70.2418 16.9284C70.6023 17.2534 71.0619 17.4159 71.6206 17.4159C71.9631 17.4159 72.2424 17.3978 72.4587 17.3617C72.693 17.3075 72.9364 17.2353 73.1887 17.145V20.3138C72.8463 20.4582 72.4858 20.5575 72.1073 20.6117C71.7288 20.6839 71.3593 20.72 70.9988 20.72Z" fill="#353535"/>
<path d="M75.3106 20.4221V0.48877H79.393V9.26377H78.9875C79.42 8.34294 80.0599 7.63877 80.907 7.15127C81.7541 6.66377 82.7274 6.42002 83.8269 6.42002C85.431 6.42002 86.6296 6.88946 87.4227 7.82835C88.2157 8.74919 88.6122 10.1665 88.6122 12.0804V20.4221H84.5298V12.27C84.5298 11.3131 84.3496 10.627 83.9891 10.2117C83.6466 9.79641 83.1059 9.58877 82.3669 9.58877C81.4658 9.58877 80.7448 9.86863 80.2041 10.4284C79.6634 10.9881 79.393 11.7374 79.393 12.6763V20.4221H75.3106Z" fill="#353535"/>
<path d="M98.7853 20.72C96.4061 20.72 94.5497 20.079 93.2159 18.7971C91.8822 17.5152 91.2153 15.7728 91.2153 13.57C91.2153 12.1436 91.4946 10.8978 92.0534 9.83252C92.6301 8.76724 93.4232 7.93669 94.4325 7.34085C95.4599 6.72697 96.6585 6.42002 98.0283 6.42002C99.3801 6.42002 100.507 6.70891 101.408 7.28669C102.327 7.86446 103.012 8.67697 103.463 9.72419C103.931 10.7534 104.165 11.954 104.165 13.3263V14.2742H94.5677V12.2429H101.191L100.732 12.6221C100.732 11.4846 100.498 10.627 100.029 10.0492C99.5784 9.45335 98.9205 9.15544 98.0553 9.15544C97.1001 9.15544 96.3611 9.50752 95.8384 10.2117C95.3337 10.9159 95.0814 11.927 95.0814 13.245V13.6784C95.0814 15.0145 95.4058 16.0075 96.0547 16.6575C96.7216 17.3075 97.6768 17.6325 98.9205 17.6325C99.6595 17.6325 100.353 17.5422 101.002 17.3617C101.669 17.1631 102.3 16.8561 102.895 16.4409L104.03 19.1492C103.345 19.6547 102.552 20.0429 101.651 20.3138C100.768 20.5846 99.8127 20.72 98.7853 20.72Z" fill="#353535"/>
<path d="M106.729 20.4221V10.32C106.729 9.72419 106.711 9.11932 106.674 8.50544C106.656 7.89155 106.611 7.28669 106.539 6.69085H110.46L110.919 10.6992H110.297C110.478 9.72419 110.766 8.92071 111.162 8.28877C111.577 7.65683 112.082 7.18738 112.676 6.88044C113.289 6.57349 113.983 6.42002 114.758 6.42002C115.101 6.42002 115.371 6.43808 115.569 6.47419C115.768 6.49224 115.966 6.53738 116.164 6.6096L116.137 10.2117C115.759 10.0492 115.434 9.94988 115.164 9.91377C114.911 9.8596 114.587 9.83252 114.19 9.83252C113.433 9.83252 112.803 9.97696 112.298 10.2659C111.811 10.5547 111.442 10.979 111.189 11.5388C110.955 12.0985 110.838 12.7756 110.838 13.57V20.4221H106.729Z" fill="#353535"/>
</svg>
