<svg width="120" height="40" viewBox="0 0 120 40" fill="none" xmlns="http://www.w3.org/2000/svg">
<path d="M110.463 0.00013H9.86281C9.49611 0.00013 9.13381 0.00013 8.76807 0.00213C8.46192 0.00413 8.15822 0.00994 7.84912 0.01483C7.17764 0.0227318 6.50773 0.0818063 5.84522 0.19154C5.18365 0.303663 4.5428 0.515046 3.94434 0.81854C3.34662 1.1246 2.80047 1.5223 2.3257 1.9972C1.84843 2.47077 1.45059 3.01815 1.14748 3.61829C0.843525 4.21724 0.632766 4.85907 0.522475 5.52161C0.411136 6.18332 0.351223 6.85265 0.343275 7.52361C0.333995 7.83021 0.333015 8.13783 0.328125 8.44447V31.5587C0.333015 31.8692 0.333995 32.17 0.343275 32.4806C0.351226 33.1516 0.411138 33.8209 0.522475 34.4825C0.632461 35.1455 0.843233 35.7877 1.14748 36.3868C1.45045 36.985 1.84835 37.5302 2.3257 38.0011C2.79867 38.4781 3.34518 38.8761 3.94434 39.1798C4.54279 39.4841 5.18358 39.6968 5.84522 39.8106C6.50784 39.9195 7.17768 39.9786 7.84912 39.9874C8.15822 39.9942 8.46192 39.9981 8.76807 39.9981C9.13379 40.0001 9.49613 40.0001 9.86281 40.0001H110.463C110.822 40.0001 111.188 40.0001 111.547 39.9981C111.852 39.9981 112.164 39.9942 112.469 39.9874C113.139 39.9791 113.808 39.92 114.469 39.8106C115.133 39.696 115.776 39.4834 116.377 39.1798C116.976 38.8759 117.522 38.478 117.994 38.0011C118.47 37.5284 118.869 36.9836 119.176 36.3868C119.478 35.7872 119.687 35.1451 119.795 34.4825C119.906 33.8208 119.968 33.1516 119.98 32.4806C119.984 32.17 119.984 31.8692 119.984 31.5587C119.992 31.1954 119.992 30.8341 119.992 30.4649V9.53626C119.992 9.17005 119.992 8.80677 119.984 8.44447C119.984 8.13783 119.984 7.83021 119.98 7.52357C119.968 6.85255 119.906 6.18337 119.795 5.52157C119.686 4.85941 119.477 4.21763 119.176 3.61825C118.559 2.41533 117.58 1.43616 116.377 0.81845C115.776 0.515697 115.133 0.30437 114.469 0.19145C113.808 0.0812328 113.139 0.0221378 112.469 0.01469C112.164 0.00981 111.852 0.00395 111.547 0.002C111.188 0 110.822 0.00013 110.463 0.00013Z" fill="#A6A6A6"/>
<path d="M8.77299 39.125C8.46831 39.125 8.17099 39.1211 7.8687 39.1143C7.24248 39.1061 6.61773 39.0516 5.99956 38.9512C5.42315 38.8519 4.86477 38.6673 4.34282 38.4033C3.82566 38.1415 3.35397 37.7983 2.94582 37.3867C2.53176 36.98 2.18704 36.5082 1.92531 35.9902C1.6607 35.4688 1.47757 34.9099 1.38231 34.333C1.27944 33.7131 1.22378 33.0863 1.21581 32.458C1.20947 32.2471 1.20117 31.5449 1.20117 31.5449V8.44434C1.20117 8.44434 1.21001 7.75293 1.21586 7.5498C1.22349 6.92248 1.27882 6.29665 1.38139 5.67773C1.47683 5.09925 1.6601 4.53875 1.92485 4.01563C2.18562 3.49794 2.52843 3.02586 2.93999 2.61768C3.35109 2.20562 3.82429 1.8606 4.34233 1.59521C4.86308 1.33209 5.42041 1.14873 5.99565 1.05127C6.61585 0.949836 7.24277 0.894996 7.87116 0.88721L8.77348 0.875H111.542L112.455 0.8877C113.078 0.895099 113.699 0.94945 114.314 1.05029C114.895 1.14898 115.458 1.33362 115.984 1.59814C117.022 2.13299 117.867 2.97916 118.399 4.01807C118.66 4.53758 118.84 5.09351 118.935 5.66699C119.038 6.29099 119.097 6.92174 119.108 7.5542C119.111 7.8374 119.111 8.1416 119.111 8.44434C119.119 8.81934 119.119 9.17627 119.119 9.53613V30.4648C119.119 30.8281 119.119 31.1826 119.111 31.54C119.111 31.8652 119.111 32.1631 119.107 32.4697C119.096 33.0909 119.039 33.7104 118.937 34.3232C118.843 34.9043 118.661 35.4675 118.397 35.9932C118.133 36.5056 117.79 36.9733 117.381 37.3789C116.972 37.7927 116.5 38.1379 115.982 38.4014C115.456 38.6674 114.894 38.8527 114.314 38.9512C113.695 39.0522 113.071 39.1067 112.444 39.1143C112.151 39.1211 111.845 39.125 111.547 39.125L110.463 39.127L8.77299 39.125Z" fill="black"/>
<g clip-path="url(#clip0_302_452)">
<path fill-rule="evenodd" clip-rule="evenodd" d="M18.3973 9.19995C13.7132 9.19995 12 10.9129 12 15.596V25.6039C12 30.2871 13.7132 32 18.3973 32H28.3997C33.0836 32 34.8 30.2871 34.8 25.6039V15.596C34.8 10.9129 33.0868 9.19995 28.4027 9.19995H18.3973Z" fill="url(#paint0_linear_302_452)"/>
<path fill-rule="evenodd" clip-rule="evenodd" d="M21.9453 22.4235H22.8606L22.4014 21.3555L21.9453 22.4235ZM21.7199 22.9617L21.4483 23.5831H20.83L22.1448 20.6002H22.6792L23.9887 23.5831H23.3539L23.0858 22.9617H21.7199ZM31.6691 23.5809H32.2667V20.6H31.6691V23.5809ZM29.2907 22.3004H30.3922V21.7568H29.2907V21.1459H30.8897V20.6022H28.6933V23.5829H30.9473V23.0392H29.2907V22.3004ZM26.9163 22.6526L26.2388 20.6H25.7444L25.067 22.6526L24.4076 20.6016H23.7629L24.8034 23.5848H25.3046L25.9832 21.6253L26.6618 23.5848H27.1674L28.2051 20.6016H27.5771L26.9163 22.6526ZM19.9178 22.3086C19.9178 22.7939 19.6768 23.0532 19.2392 23.0532C18.7992 23.0532 18.557 22.7863 18.557 22.2879V20.602H17.9513V22.3086C17.9513 23.1481 18.4179 23.6295 19.231 23.6295C20.0521 23.6295 20.5229 23.1389 20.5229 22.2837V20.6002H19.9178V22.3086ZM16.5064 20.6002H17.1117V23.5849H16.5064V22.3727H15.139V23.5849H14.5333V20.6002H15.139V21.8041H16.5064V20.6002Z" fill="white"/>
<path fill-rule="evenodd" clip-rule="evenodd" d="M23.4 16.8001C21.3045 16.8001 19.6 15.0955 19.6 13.0001H20.1368C20.1368 14.7993 21.6008 16.2632 23.4 16.2632C25.1993 16.2632 26.6633 14.7993 26.6633 13.0001H27.2001C27.2001 15.0955 25.4954 16.8001 23.4 16.8001Z" fill="white"/>
</g>
<path d="M44.8877 20.373L41.9141 29H40.1162L43.8623 19.0469H45.0107L44.8877 20.373ZM47.376 29L44.3955 20.373L44.2656 19.0469H45.4209L49.1807 29H47.376ZM47.2324 25.3086V26.6689H41.8184V25.3086H47.2324ZM51.6621 23.0254V31.8438H50.0146V21.6035H51.5322L51.6621 23.0254ZM56.4814 25.2334V25.377C56.4814 25.9147 56.4176 26.4137 56.29 26.874C56.167 27.3298 55.9824 27.7285 55.7363 28.0703C55.4948 28.4076 55.1963 28.6696 54.8408 28.8564C54.4854 29.0433 54.0752 29.1367 53.6104 29.1367C53.1501 29.1367 52.7467 29.0524 52.4004 28.8838C52.0586 28.7106 51.7692 28.4668 51.5322 28.1523C51.2952 27.8379 51.1038 27.4688 50.958 27.0449C50.8167 26.6165 50.7165 26.1471 50.6572 25.6367V25.083C50.7165 24.5407 50.8167 24.0485 50.958 23.6064C51.1038 23.1644 51.2952 22.7839 51.5322 22.4648C51.7692 22.1458 52.0586 21.8997 52.4004 21.7266C52.7422 21.5534 53.141 21.4668 53.5967 21.4668C54.0615 21.4668 54.474 21.5579 54.834 21.7402C55.194 21.918 55.4971 22.1732 55.7432 22.5059C55.9893 22.834 56.1738 23.2305 56.2969 23.6953C56.4199 24.1556 56.4814 24.6683 56.4814 25.2334ZM54.834 25.377V25.2334C54.834 24.8916 54.8021 24.5749 54.7383 24.2832C54.6745 23.987 54.5742 23.7272 54.4375 23.5039C54.3008 23.2806 54.1253 23.1074 53.9111 22.9844C53.7015 22.8568 53.4486 22.793 53.1523 22.793C52.8607 22.793 52.61 22.8431 52.4004 22.9434C52.1908 23.0391 52.0153 23.1735 51.874 23.3467C51.7327 23.5199 51.6234 23.7227 51.5459 23.9551C51.4684 24.1829 51.4137 24.4313 51.3818 24.7002V26.0264C51.4365 26.3545 51.5299 26.6553 51.6621 26.9287C51.7943 27.2021 51.9811 27.4209 52.2227 27.585C52.4688 27.7445 52.7832 27.8242 53.166 27.8242C53.4622 27.8242 53.7152 27.7604 53.9248 27.6328C54.1344 27.5052 54.3053 27.3298 54.4375 27.1064C54.5742 26.8786 54.6745 26.6165 54.7383 26.3203C54.8021 26.0241 54.834 25.7096 54.834 25.377ZM59.5371 23.0254V31.8438H57.8896V21.6035H59.4072L59.5371 23.0254ZM64.3564 25.2334V25.377C64.3564 25.9147 64.2926 26.4137 64.165 26.874C64.042 27.3298 63.8574 27.7285 63.6113 28.0703C63.3698 28.4076 63.0713 28.6696 62.7158 28.8564C62.3604 29.0433 61.9502 29.1367 61.4854 29.1367C61.0251 29.1367 60.6217 29.0524 60.2754 28.8838C59.9336 28.7106 59.6442 28.4668 59.4072 28.1523C59.1702 27.8379 58.9788 27.4688 58.833 27.0449C58.6917 26.6165 58.5915 26.1471 58.5322 25.6367V25.083C58.5915 24.5407 58.6917 24.0485 58.833 23.6064C58.9788 23.1644 59.1702 22.7839 59.4072 22.4648C59.6442 22.1458 59.9336 21.8997 60.2754 21.7266C60.6172 21.5534 61.016 21.4668 61.4717 21.4668C61.9365 21.4668 62.349 21.5579 62.709 21.7402C63.069 21.918 63.3721 22.1732 63.6182 22.5059C63.8643 22.834 64.0488 23.2305 64.1719 23.6953C64.2949 24.1556 64.3564 24.6683 64.3564 25.2334ZM62.709 25.377V25.2334C62.709 24.8916 62.6771 24.5749 62.6133 24.2832C62.5495 23.987 62.4492 23.7272 62.3125 23.5039C62.1758 23.2806 62.0003 23.1074 61.7861 22.9844C61.5765 22.8568 61.3236 22.793 61.0273 22.793C60.7357 22.793 60.485 22.8431 60.2754 22.9434C60.0658 23.0391 59.8903 23.1735 59.749 23.3467C59.6077 23.5199 59.4984 23.7227 59.4209 23.9551C59.3434 24.1829 59.2887 24.4313 59.2568 24.7002V26.0264C59.3115 26.3545 59.4049 26.6553 59.5371 26.9287C59.6693 27.2021 59.8561 27.4209 60.0977 27.585C60.3438 27.7445 60.6582 27.8242 61.041 27.8242C61.3372 27.8242 61.5902 27.7604 61.7998 27.6328C62.0094 27.5052 62.1803 27.3298 62.3125 27.1064C62.4492 26.8786 62.5495 26.6165 62.6133 26.3203C62.6771 26.0241 62.709 25.7096 62.709 25.377ZM73.5645 23.9141V27.7148C73.4232 27.9017 73.2021 28.1068 72.9014 28.3301C72.6051 28.5488 72.2109 28.738 71.7188 28.8975C71.2266 29.057 70.6136 29.1367 69.8799 29.1367C69.2555 29.1367 68.6836 29.0319 68.1641 28.8223C67.6445 28.6081 67.1956 28.2959 66.8174 27.8857C66.4437 27.4756 66.1543 26.9766 65.9492 26.3887C65.7441 25.7962 65.6416 25.1217 65.6416 24.3652V23.6748C65.6416 22.9229 65.735 22.2529 65.9219 21.665C66.1133 21.0726 66.3867 20.5713 66.7422 20.1611C67.0977 19.751 67.526 19.4411 68.0273 19.2314C68.5332 19.0173 69.1051 18.9102 69.7432 18.9102C70.5589 18.9102 71.2334 19.0469 71.7666 19.3203C72.3044 19.5892 72.7191 19.9629 73.0107 20.4414C73.3024 20.9199 73.487 21.4668 73.5645 22.082H71.8828C71.8281 21.7357 71.721 21.4258 71.5615 21.1523C71.4066 20.8789 71.1833 20.6647 70.8916 20.5098C70.6045 20.3503 70.2308 20.2705 69.7705 20.2705C69.374 20.2705 69.0254 20.3457 68.7246 20.4961C68.4238 20.6465 68.1732 20.8675 67.9727 21.1592C67.7767 21.4508 67.6286 21.8063 67.5283 22.2256C67.4281 22.6449 67.3779 23.1234 67.3779 23.6611V24.3652C67.3779 24.9121 67.4349 25.3975 67.5488 25.8213C67.6673 26.2451 67.8359 26.6029 68.0547 26.8945C68.278 27.1862 68.5492 27.4072 68.8682 27.5576C69.1872 27.7035 69.5472 27.7764 69.9482 27.7764C70.3402 27.7764 70.6615 27.7445 70.9121 27.6807C71.1628 27.6123 71.361 27.5326 71.5068 27.4414C71.6572 27.3457 71.7734 27.2546 71.8555 27.168V25.1924H69.7842V23.9141H73.5645ZM79.4707 27.5166V23.9893C79.4707 23.7249 79.4229 23.4971 79.3271 23.3057C79.2314 23.1143 79.0856 22.9661 78.8896 22.8613C78.6982 22.7565 78.4567 22.7041 78.165 22.7041C77.8962 22.7041 77.6637 22.7497 77.4678 22.8408C77.2718 22.932 77.1191 23.055 77.0098 23.21C76.9004 23.3649 76.8457 23.5404 76.8457 23.7363H75.2051C75.2051 23.4447 75.2757 23.1621 75.417 22.8887C75.5583 22.6152 75.7633 22.3714 76.0322 22.1572C76.3011 21.943 76.6224 21.7744 76.9961 21.6514C77.3698 21.5283 77.7891 21.4668 78.2539 21.4668C78.8099 21.4668 79.3021 21.5602 79.7305 21.7471C80.1634 21.9339 80.5029 22.2165 80.749 22.5947C80.9997 22.9684 81.125 23.4378 81.125 24.0029V27.291C81.125 27.6283 81.1478 27.9313 81.1934 28.2002C81.2435 28.4645 81.3141 28.6947 81.4053 28.8906V29H79.7168C79.6393 28.8223 79.5778 28.5967 79.5322 28.3232C79.4912 28.0452 79.4707 27.7764 79.4707 27.5166ZM79.71 24.502L79.7236 25.5205H78.541C78.2357 25.5205 77.9668 25.5501 77.7344 25.6094C77.502 25.6641 77.3083 25.7461 77.1533 25.8555C76.9984 25.9648 76.8822 26.097 76.8047 26.252C76.7272 26.4069 76.6885 26.5824 76.6885 26.7783C76.6885 26.9743 76.734 27.1543 76.8252 27.3184C76.9163 27.4779 77.0485 27.6032 77.2217 27.6943C77.3994 27.7855 77.6136 27.8311 77.8643 27.8311C78.2015 27.8311 78.4954 27.7627 78.7461 27.626C79.0013 27.4847 79.2018 27.3138 79.3477 27.1133C79.4935 26.9082 79.571 26.7145 79.5801 26.5322L80.1133 27.2637C80.0586 27.4505 79.9652 27.651 79.833 27.8652C79.7008 28.0794 79.5277 28.2845 79.3135 28.4805C79.1038 28.6719 78.8509 28.8291 78.5547 28.9521C78.263 29.0752 77.9258 29.1367 77.543 29.1367C77.0599 29.1367 76.6292 29.041 76.251 28.8496C75.8727 28.6536 75.5765 28.3916 75.3623 28.0635C75.1481 27.7308 75.041 27.3548 75.041 26.9355C75.041 26.5436 75.1139 26.1973 75.2598 25.8965C75.4102 25.5911 75.6289 25.3359 75.916 25.1309C76.2077 24.9258 76.5632 24.7708 76.9824 24.666C77.4017 24.5566 77.8802 24.502 78.418 24.502H79.71ZM84.6113 18.5V29H82.957V18.5H84.6113ZM88.1797 18.5V29H86.5254V18.5H88.1797ZM93.2451 29.1367C92.6982 29.1367 92.2038 29.0479 91.7617 28.8701C91.3242 28.6878 90.9505 28.4349 90.6406 28.1113C90.3353 27.7878 90.1006 27.4072 89.9365 26.9697C89.7725 26.5322 89.6904 26.0605 89.6904 25.5547V25.2812C89.6904 24.7025 89.7747 24.1784 89.9434 23.709C90.112 23.2396 90.3467 22.8385 90.6475 22.5059C90.9482 22.1686 91.3037 21.9111 91.7139 21.7334C92.124 21.5557 92.5684 21.4668 93.0469 21.4668C93.5755 21.4668 94.0381 21.5557 94.4346 21.7334C94.8311 21.9111 95.1592 22.1618 95.4189 22.4854C95.6833 22.8044 95.8792 23.1849 96.0068 23.627C96.139 24.069 96.2051 24.5566 96.2051 25.0898V25.7939H90.4902V24.6113H94.5781V24.4814C94.569 24.1852 94.5098 23.9072 94.4004 23.6475C94.2956 23.3877 94.1338 23.1781 93.915 23.0186C93.6963 22.859 93.4046 22.7793 93.04 22.7793C92.7666 22.7793 92.5228 22.8385 92.3086 22.957C92.099 23.071 91.9235 23.2373 91.7822 23.4561C91.641 23.6748 91.5316 23.9391 91.4541 24.249C91.3812 24.5544 91.3447 24.8984 91.3447 25.2812V25.5547C91.3447 25.8783 91.388 26.179 91.4746 26.457C91.5658 26.7305 91.6979 26.9697 91.8711 27.1748C92.0443 27.3799 92.2539 27.5417 92.5 27.6602C92.7461 27.7741 93.0264 27.8311 93.3408 27.8311C93.7373 27.8311 94.0905 27.7513 94.4004 27.5918C94.7103 27.4323 94.9792 27.2067 95.207 26.915L96.0752 27.7559C95.9157 27.9883 95.7083 28.2116 95.4531 28.4258C95.1979 28.6354 94.8857 28.8063 94.5166 28.9385C94.152 29.0706 93.7282 29.1367 93.2451 29.1367ZM99.1445 23.0117V29H97.4971V21.6035H99.0693L99.1445 23.0117ZM101.407 21.5557L101.394 23.0869C101.293 23.0687 101.184 23.055 101.065 23.0459C100.951 23.0368 100.838 23.0322 100.724 23.0322C100.441 23.0322 100.193 23.0732 99.9785 23.1553C99.7643 23.2327 99.5843 23.3467 99.4385 23.4971C99.2972 23.6429 99.1878 23.8206 99.1104 24.0303C99.0329 24.2399 98.9873 24.4746 98.9736 24.7344L98.5977 24.7617C98.5977 24.2969 98.6432 23.8662 98.7344 23.4697C98.8255 23.0732 98.9622 22.7246 99.1445 22.4238C99.3314 22.123 99.5638 21.8883 99.8418 21.7197C100.124 21.5511 100.45 21.4668 100.819 21.4668C100.92 21.4668 101.027 21.4759 101.141 21.4941C101.259 21.5124 101.348 21.5329 101.407 21.5557ZM104.709 28.1934L106.719 21.6035H108.482L105.516 30.1279C105.447 30.3102 105.358 30.5085 105.249 30.7227C105.14 30.9368 104.996 31.1396 104.818 31.3311C104.645 31.527 104.429 31.6842 104.169 31.8027C103.909 31.9258 103.595 31.9873 103.226 31.9873C103.08 31.9873 102.938 31.9736 102.802 31.9463C102.67 31.9235 102.544 31.8984 102.426 31.8711L102.419 30.6133C102.465 30.6178 102.519 30.6224 102.583 30.627C102.651 30.6315 102.706 30.6338 102.747 30.6338C103.021 30.6338 103.248 30.5996 103.431 30.5312C103.613 30.4674 103.761 30.3626 103.875 30.2168C103.993 30.071 104.094 29.875 104.176 29.6289L104.709 28.1934ZM103.574 21.6035L105.331 27.1406L105.625 28.877L104.483 29.1709L101.797 21.6035H103.574Z" fill="white"/>
<path d="M45.0391 11.9766V12.3359C45.0391 12.763 44.9857 13.1458 44.8789 13.4844C44.7721 13.8229 44.6185 14.1107 44.418 14.3477C44.2174 14.5846 43.9766 14.7656 43.6953 14.8906C43.4167 15.0156 43.1042 15.0781 42.7578 15.0781C42.4219 15.0781 42.1133 15.0156 41.832 14.8906C41.5534 14.7656 41.3112 14.5846 41.1055 14.3477C40.9023 14.1107 40.7448 13.8229 40.6328 13.4844C40.5208 13.1458 40.4648 12.763 40.4648 12.3359V11.9766C40.4648 11.5495 40.5195 11.168 40.6289 10.832C40.7409 10.4935 40.8984 10.2057 41.1016 9.96875C41.3047 9.72917 41.5456 9.54688 41.8242 9.42188C42.1055 9.29688 42.4141 9.23438 42.75 9.23438C43.0964 9.23438 43.4089 9.29688 43.6875 9.42188C43.9688 9.54688 44.2096 9.72917 44.4102 9.96875C44.6133 10.2057 44.7682 10.4935 44.875 10.832C44.9844 11.168 45.0391 11.5495 45.0391 11.9766ZM44.293 12.3359V11.9688C44.293 11.6302 44.2578 11.3307 44.1875 11.0703C44.1198 10.8099 44.0195 10.5911 43.8867 10.4141C43.7539 10.237 43.5911 10.1029 43.3984 10.0117C43.2083 9.92057 42.9922 9.875 42.75 9.875C42.5156 9.875 42.3034 9.92057 42.1133 10.0117C41.9258 10.1029 41.7643 10.237 41.6289 10.4141C41.4961 10.5911 41.3932 10.8099 41.3203 11.0703C41.2474 11.3307 41.2109 11.6302 41.2109 11.9688V12.3359C41.2109 12.6771 41.2474 12.9792 41.3203 13.2422C41.3932 13.5026 41.4974 13.7227 41.6328 13.9023C41.7708 14.0794 41.9336 14.2135 42.1211 14.3047C42.3112 14.3958 42.5234 14.4414 42.7578 14.4414C43.0026 14.4414 43.2201 14.3958 43.4102 14.3047C43.6003 14.2135 43.7604 14.0794 43.8906 13.9023C44.0234 13.7227 44.1237 13.5026 44.1914 13.2422C44.2591 12.9792 44.293 12.6771 44.293 12.3359ZM48.2656 12.7695H46.7461V12.1562H48.2656C48.5599 12.1562 48.7982 12.1094 48.9805 12.0156C49.1628 11.9219 49.2956 11.7917 49.3789 11.625C49.4648 11.4583 49.5078 11.2682 49.5078 11.0547C49.5078 10.8594 49.4648 10.6758 49.3789 10.5039C49.2956 10.332 49.1628 10.194 48.9805 10.0898C48.7982 9.98307 48.5599 9.92969 48.2656 9.92969H46.9219V15H46.168V9.3125H48.2656C48.6953 9.3125 49.0586 9.38672 49.3555 9.53516C49.6523 9.68359 49.8776 9.88932 50.0312 10.1523C50.1849 10.4128 50.2617 10.7109 50.2617 11.0469C50.2617 11.4115 50.1849 11.7227 50.0312 11.9805C49.8776 12.2383 49.6523 12.4349 49.3555 12.5703C49.0586 12.7031 48.6953 12.7695 48.2656 12.7695ZM54.8281 14.3867V15H51.8164V14.3867H54.8281ZM51.9688 9.3125V15H51.2148V9.3125H51.9688ZM54.4297 11.7578V12.3711H51.8164V11.7578H54.4297ZM54.7891 9.3125V9.92969H51.8164V9.3125H54.7891ZM60.1367 9.3125V15H59.3789L56.5156 10.6133V15H55.7617V9.3125H56.5156L59.3906 13.7109V9.3125H60.1367ZM64.2656 9.3125V15H63.5117V9.3125H64.2656ZM70.0117 9.3125V15H69.2539L66.3906 10.6133V15H65.6367V9.3125H66.3906L69.2656 13.7109V9.3125H70.0117Z" fill="#D9D9D9"/>
<defs>
<linearGradient id="paint0_linear_302_452" x1="1152" y1="9.19995" x2="1152" y2="2289.2" gradientUnits="userSpaceOnUse">
<stop stop-color="#FB6361"/>
<stop offset="1" stop-color="#ED3E45"/>
</linearGradient>
<clipPath id="clip0_302_452">
<rect width="24" height="24" fill="white" transform="translate(11 8)"/>
</clipPath>
</defs>
</svg>
