<svg width="216" height="125" viewBox="0 0 216 125" fill="none" xmlns="http://www.w3.org/2000/svg">
<path d="M57.2474 11.1956L8.12911 66.8556C-3.62628 80.1766 -1.80376 100.632 12.1215 111.665L20.4928 118.298C25.9709 122.638 32.7549 125 39.7441 125H130.963H147.924C154.209 125 160.345 123.09 165.52 119.523L196.129 98.4203C202.697 93.8922 207.267 87.0063 208.887 79.195L214.5 52.1402C215.801 45.8678 215.127 39.3462 212.571 33.4724L206.138 18.6915C199.789 4.10192 183.425 -3.31158 168.27 1.53554L131.87 13.1774C123.991 15.6975 115.431 14.9637 108.095 11.139L94.8227 4.2191C82.1833 -2.37079 66.679 0.507838 57.2474 11.1956Z" fill="#46D3BA"/>
<path d="M57.2474 11.1956L8.12911 66.8556C-3.62628 80.1766 -1.80376 100.632 12.1215 111.665L20.4928 118.298C25.9709 122.638 32.7549 125 39.7441 125H130.963H147.924C154.209 125 160.345 123.09 165.52 119.523L196.129 98.4203C202.697 93.8922 207.267 87.0063 208.887 79.195L214.5 52.1402C215.801 45.8678 215.127 39.3462 212.571 33.4724L206.138 18.6915C199.789 4.10192 183.425 -3.31158 168.27 1.53554L131.87 13.1774C123.991 15.6975 115.431 14.9637 108.095 11.139L94.8227 4.2191C82.1833 -2.37079 66.679 0.507838 57.2474 11.1956Z" fill="url(#paint0_linear_329_1630)" fill-opacity="0.2"/>
<defs>
<linearGradient id="paint0_linear_329_1630" x1="101.5" y1="-7" x2="101.5" y2="125" gradientUnits="userSpaceOnUse">
<stop stop-color="#36C9C0" stop-opacity="0"/>
<stop offset="1" stop-color="#368BC9"/>
</linearGradient>
</defs>
</svg>
