<svg width="138" height="120" viewBox="0 0 138 120" fill="none" xmlns="http://www.w3.org/2000/svg">
<path d="M27.9077 12.8267L3.0277 68.0479C-1.87744 78.9349 -0.0934758 91.6713 7.61403 100.792L14.1363 108.51C20.0265 115.479 28.6883 119.5 37.8137 119.5H99.0983C105.876 119.5 112.467 117.279 117.862 113.177L125.309 107.514C138.546 97.4488 141.483 78.7311 131.965 65.0946L104.79 26.1609C100.86 20.5308 92.6591 20.1622 88.2402 25.4171C83.5367 31.0104 74.6899 30.1642 71.132 23.7809L64.1652 11.2816C56.0375 -3.30039 34.7653 -2.3939 27.9077 12.8267Z" fill="#46D3BA"/>
<path d="M27.9077 12.8267L3.0277 68.0479C-1.87744 78.9349 -0.0934758 91.6713 7.61403 100.792L14.1363 108.51C20.0265 115.479 28.6883 119.5 37.8137 119.5H99.0983C105.876 119.5 112.467 117.279 117.862 113.177L125.309 107.514C138.546 97.4488 141.483 78.7311 131.965 65.0946L104.79 26.1609C100.86 20.5308 92.6591 20.1622 88.2402 25.4171C83.5367 31.0104 74.6899 30.1642 71.132 23.7809L64.1652 11.2816C56.0375 -3.30039 34.7653 -2.3939 27.9077 12.8267Z" fill="url(#paint0_linear_329_1661)" fill-opacity="0.2"/>
<defs>
<linearGradient id="paint0_linear_329_1661" x1="72" y1="-24" x2="72" y2="119.5" gradientUnits="userSpaceOnUse">
<stop stop-color="#36C9C0" stop-opacity="0"/>
<stop offset="1" stop-color="#368BC9"/>
</linearGradient>
</defs>
</svg>
