<svg width="276" height="72" viewBox="0 0 276 72" fill="none" xmlns="http://www.w3.org/2000/svg">
<path d="M51.3011 30.4536C56.5953 30.4536 57.7864 32.7577 57.7864 35.6315C57.7864 38.6778 56.3456 40.8602 51.3231 40.8602C46.3326 40.8602 44.8901 38.8046 44.8901 35.6315C44.8901 32.5092 46.4625 30.4536 51.3011 30.4536Z" fill="#394149"/>
<path d="M106.628 30.4536C111.923 30.4536 113.114 32.7577 113.114 35.6315C113.114 38.6778 111.671 40.8602 106.65 40.8602C101.662 40.8602 100.217 38.8046 100.217 35.6315C100.217 32.5092 101.79 30.4536 106.628 30.4536Z" fill="#394149"/>
<path fill-rule="evenodd" clip-rule="evenodd" d="M4.42757 65.5833V5.65088H271.968V65.5833H4.42757ZM131.937 62.2024H268.593V9.03183H131.937V62.2024ZM51.3264 45.962C60.7254 45.962 64.6766 41.8998 64.6766 35.5554C64.6766 29.1079 60.226 25.2756 51.3264 25.2756C42.5636 25.2756 37.951 29.4376 37.951 35.5554C37.951 42.4593 42.7896 45.962 51.3264 45.962ZM18.6487 25.732V45.6577H37.6186V40.3513H25.5119V25.732H18.6487ZM85.9073 45.6577L85.7301 43.7272C83.4341 45.369 80.6396 46.1591 77.826 45.962C73.5964 45.962 70.0737 44.6924 68.0981 42.1297C66.7949 40.2586 66.137 38.0127 66.2237 35.7329C66.1496 33.501 66.8304 31.3094 68.1554 29.5136C70.1547 27.027 73.7786 25.377 79.174 25.377C85.3809 25.377 89.0284 27.2805 90.5974 30.4789C90.9342 31.2322 91.1321 32.0402 91.1812 32.8642H84.6149C84.4494 32.3634 84.1415 31.9222 83.7292 31.5946C82.4212 30.7257 80.8592 30.3239 79.2955 30.4535C78.3782 30.3421 77.4475 30.427 76.5655 30.7027C75.6835 30.9784 74.8698 31.4386 74.1784 32.0527C73.3932 33.1296 73.0246 34.4552 73.1408 35.7836C73.0497 37.051 73.3887 38.3121 74.1025 39.3624C74.8001 40.0137 75.6295 40.507 76.5341 40.8092C77.4389 41.1113 78.3977 41.2153 79.3461 41.1137C81.2294 41.2672 83.0992 40.6852 84.5643 39.4891C84.879 39.0949 85.0959 38.6314 85.197 38.1368H78.1313V33.8548H91.3533V45.6577H85.9073ZM106.654 45.962C116.051 45.962 120.004 41.8998 120.004 35.5554C120.004 29.1079 115.546 25.2756 106.654 25.2756C97.8909 25.2756 93.2783 29.4376 93.2783 35.5554C93.2783 42.4593 98.1169 45.962 106.654 45.962Z" fill="#394149"/>
<path d="M143.497 45.5814V25.6558H148.39V45.5814H143.497Z" fill="#394149"/>
<path d="M173.514 37.256C172.274 38.8805 170.14 39.6226 167.132 39.6412C166.497 39.6412 158.087 39.6159 158.087 39.6159V45.5816H153.299V25.6559H167.133C168.242 25.5384 169.364 25.6563 170.423 26.0016C171.485 26.3472 172.46 26.9125 173.288 27.6608C174.381 29.0879 174.913 30.8673 174.783 32.6613C174.894 34.2929 174.447 35.9139 173.514 37.256ZM169.588 30.7595C169.082 29.9988 167.991 29.5761 166.143 29.5761H158.062V35.6416H166.091C168.066 35.6416 169.107 35.2359 169.588 34.4481C169.873 33.8931 169.997 33.2681 169.943 32.6461C169.985 31.9972 169.863 31.3483 169.588 30.7595Z" fill="#394149"/>
<path d="M188.892 45.8858C179.873 45.8858 177.113 42.5048 177.113 39.1594H182.23C182.23 40.8093 184.484 42.0535 189.12 42.0535C193.729 42.0535 194.946 41.2403 194.946 39.9201C194.946 38.4477 194.035 37.9913 189.753 37.5095C188.909 37.4334 186.613 37.1545 185.751 37.0277C179.677 36.3413 177.339 34.5393 177.339 31.3156C177.339 27.9143 180.76 25.3516 188.182 25.3516C196.238 25.3516 199.329 28.5246 199.329 31.8244H194.267C194.267 30.1491 192.368 29.1839 187.883 29.1839C183.272 29.1839 182.285 29.8178 182.285 31.062C182.285 32.3569 183.298 32.7626 188.19 33.3458C189.306 33.4997 191.787 33.7786 192.471 33.853C197.64 34.3855 199.97 36.2636 199.97 39.5888C199.961 43.5495 196.415 45.8858 188.892 45.8858Z" fill="#394149"/>
<path d="M214.378 45.8603C207.768 45.8603 203.46 43.2452 203.46 37.746V25.6558H208.297V37.8137C208.297 40.3274 210.351 42.001 214.58 42.001C218.405 42.001 220.686 40.4288 220.686 37.8137V25.6558H225.474V38.1974C225.474 43.1961 221.47 45.8603 214.378 45.8603Z" fill="#394149"/>
<path d="M251.692 45.5814V32.2807L245.485 45.5814H240.774L234.745 32.2807V45.5814H230.189V25.6558H236.361L243.201 40.8345L250.192 25.6558H256.266V45.5814H251.692Z" fill="#394149"/>
</svg>
