<svg width="87" height="26" viewBox="0 0 87 26" fill="none" xmlns="http://www.w3.org/2000/svg">
<mask id="mask0_402_1624" style="mask-type:luminance" maskUnits="userSpaceOnUse" x="0" y="0" width="88" height="26">
<path d="M87.0601 0.797607H0.368652V25.2039H87.0601V0.797607Z" fill="white"/>
</mask>
<g mask="url(#mask0_402_1624)">
<path d="M34.0578 23.2976H25.3389C24.8178 23.2976 24.3961 23.7193 24.3961 24.2405C24.3961 24.7616 24.8178 25.1833 25.3389 25.1833H34.0578C34.5789 25.1833 35.0006 24.7616 35.0006 24.2405C35.0006 23.7193 34.5789 23.2976 34.0578 23.2976Z" fill="#FF6643"/>
<path d="M35.0007 7.37701C35.0007 6.85587 34.5789 6.43416 34.0578 6.43416C33.5367 6.43416 33.115 6.85587 33.115 7.37701V9.80101C32.3881 9.17187 31.4932 8.73301 30.5075 8.55987V4.17816C30.5075 3.65702 30.0858 3.2353 29.5647 3.2353C29.0435 3.2353 28.6218 3.65702 28.6218 4.17816V8.55987C27.6361 8.73301 26.7412 9.17187 26.0144 9.80101V1.82616C26.0144 1.30502 25.5927 0.883301 25.0715 0.883301C24.5504 0.883301 24.1287 1.30502 24.1287 1.82616V13.9136C24.1287 16.9119 26.5681 19.3496 29.5647 19.3496C32.5612 19.3496 35.0007 16.9119 35.0007 13.9136V7.37873V7.37701ZM29.5647 17.4622C27.6069 17.4622 26.0144 15.8696 26.0144 13.9119C26.0144 11.9542 27.6069 10.3616 29.5647 10.3616C31.5224 10.3616 33.115 11.9542 33.115 13.9119C33.115 15.8696 31.5224 17.4622 29.5647 17.4622Z" fill="#FF6643"/>
<path d="M45.6173 11.6542C44.8835 11.3079 44.0675 11.145 43.171 11.145C41.6418 11.145 40.4195 11.6336 39.463 12.633C38.5047 13.6513 38.0367 15.0776 38.0367 16.953C38.0367 18.9502 38.5664 20.4176 39.6258 21.2936C40.6647 22.1902 41.887 22.6393 43.2738 22.6393C44.9453 22.6393 46.2498 22.1096 47.167 21.0502C47.7584 20.3782 48.1047 19.725 48.1853 19.0942H45.271C45.1287 19.3993 44.9453 19.665 44.7618 19.8279C44.3744 20.1536 43.927 20.337 43.3355 20.337C42.7853 20.337 42.2967 20.1947 41.9093 19.929C41.2784 19.4816 40.9304 18.7273 40.891 17.6267H48.3087C48.3293 16.7096 48.2881 15.9759 48.2264 15.4873C48.1047 14.6319 47.8184 13.8982 47.3915 13.245C46.9235 12.5113 46.3321 11.9816 45.619 11.6559L45.6173 11.6542ZM41.6435 14.0987C42.0104 13.6907 42.5195 13.4679 43.1727 13.4679C43.7847 13.4679 44.2938 13.6719 44.7018 14.0593C45.1098 14.4467 45.3138 15.0176 45.3738 15.7719H40.9715C41.0538 15.0587 41.2767 14.5084 41.6435 14.1004V14.0987Z" fill="black"/>
<path d="M50.6024 11.5342H49.0938V13.5519H50.6024V20.2153C50.6024 20.9079 50.7652 21.3982 51.091 21.7239C51.5795 22.233 52.4967 22.4782 53.8424 22.4164L55.1881 22.3753V20.2564H54.9018C54.8007 20.277 54.7184 20.277 54.6172 20.277C54.0464 20.277 53.7001 20.2153 53.5784 20.1142C53.4755 19.9924 53.4155 19.7267 53.4155 19.2793V13.5536H55.1881V11.5359H53.4155V8.49988H50.6041V11.5359H50.6024V11.5342Z" fill="black"/>
<path d="M64.8069 11.493C64.2566 11.2685 63.6463 11.1468 62.9726 11.1468C62.3812 11.1468 61.8103 11.2685 61.2806 11.5136C60.7303 11.7588 60.2623 12.2062 59.8543 12.8388V7.66333H57.0223V22.2742H59.8543V16.4045C59.8543 15.4873 60.0378 14.7536 60.4252 14.2445C60.8126 13.7559 61.3835 13.5108 62.1378 13.5108C62.8921 13.5108 63.3395 13.7559 63.6052 14.265C63.8092 14.6319 63.9103 15.0793 63.9103 15.6708V22.2725H66.8041V15.9142C66.8041 14.9353 66.7629 14.2222 66.7029 13.7953C66.6412 13.3668 66.4578 12.9605 66.1526 12.5525C65.8063 12.0845 65.3572 11.7176 64.8069 11.493Z" fill="black"/>
<path d="M76.1846 11.6542C75.4509 11.3079 74.6366 11.145 73.7401 11.145C72.2109 11.145 70.9886 11.6336 70.0304 12.633C69.0721 13.6513 68.6041 15.0776 68.6041 16.953C68.6041 18.9502 69.1338 20.4176 70.1932 21.2936C71.2321 22.1902 72.4561 22.6393 73.8412 22.6393C75.5126 22.6393 76.8155 22.1096 77.7326 21.0502C78.3241 20.3782 78.6704 19.725 78.7509 19.0942H75.8366C75.6944 19.3993 75.5109 19.665 75.3275 19.8279C74.9401 20.1536 74.4926 20.337 73.9012 20.337C73.3509 20.337 72.8623 20.1947 72.4749 19.929C71.8441 19.4816 71.4961 18.7273 71.4566 17.6267H78.8743C78.8949 16.7096 78.8538 15.9759 78.7921 15.4873C78.6703 14.6319 78.3841 13.8982 77.9572 13.245C77.4892 12.5113 76.8978 11.9816 76.1846 11.6559V11.6542ZM72.2109 14.0987C72.5778 13.6907 73.0869 13.4679 73.7401 13.4679C74.3521 13.4679 74.8612 13.6719 75.2675 14.0593C75.6755 14.4467 75.8795 15.0176 75.9395 15.7719H71.5372C71.6195 15.0587 71.8424 14.5084 72.2092 14.1004H72.2109V14.0987Z" fill="black"/>
<path d="M86.8149 11.1674H86.6726C85.8172 11.1674 85.1246 11.3919 84.5949 11.8394C84.2692 12.1051 83.9023 12.5936 83.4532 13.3274V11.4314H80.7429V22.2725H83.6161V17.0971C83.6161 16.2211 83.7172 15.5679 83.9418 15.1616C84.3292 14.4074 85.0835 14.0405 86.2441 14.0405C86.3246 14.0405 86.4275 14.0405 86.5698 14.0611C86.7121 14.0611 86.8749 14.0816 87.0584 14.1022V11.1879C86.9161 11.1879 86.8338 11.1879 86.8132 11.1674H86.8149Z" fill="black"/>
<path d="M7.86865 10.2073H12.2504V7.59814H0.368652V10.2073H4.77094V22.2707H7.86865V10.2073Z" fill="black"/>
<path d="M19.7881 20.949C20.7052 19.8278 21.1526 18.4632 21.1526 16.8741C21.1526 15.285 20.7035 13.9392 19.7881 12.7992C18.8709 11.6575 17.4858 11.0867 15.6103 11.0867C13.7349 11.0867 12.3703 11.6575 11.4532 12.7992C10.5361 13.941 10.0681 15.3055 10.0681 16.8741C10.0681 18.4427 10.5361 19.8295 11.4532 20.949C12.3703 22.0907 13.7555 22.6615 15.6103 22.6615C17.4652 22.6615 18.8709 22.0907 19.7881 20.949ZM17.5063 19.3804C17.0572 19.9718 16.4263 20.277 15.6103 20.277C14.7943 20.277 14.1429 19.9718 13.6955 19.3804C13.2463 18.8095 13.0235 17.9541 13.0235 16.8741C13.0235 15.7941 13.2481 14.9387 13.6955 14.3472C14.1446 13.7764 14.7755 13.4712 15.6103 13.4712C16.4452 13.4712 17.0572 13.7764 17.5063 14.3472C17.9538 14.9387 18.1783 15.7941 18.1783 16.8741C18.1783 17.9541 17.9538 18.8095 17.5063 19.3804Z" fill="black"/>
</g>
</svg>
