<svg width="24" height="18" viewBox="0 0 24 18" fill="none" xmlns="http://www.w3.org/2000/svg">
<g clip-path="url(#clip0_172_264)">
<rect y="0.375" width="24" height="17.25" rx="3" fill="#AF010D"/>
<path fill-rule="evenodd" clip-rule="evenodd" d="M0 0.375L11.4286 8.425H12.5714L4.57143 0.375H0ZM0 17.625L11.4286 9.575H12.5714L4.57143 17.625H0Z" fill="#FFDA2C"/>
<path fill-rule="evenodd" clip-rule="evenodd" d="M12.5714 8.425H11.4286L19.4286 0.375H24L12.5714 8.425ZM12.5714 9.575H11.4286L19.4286 17.625H24L12.5714 9.575ZM9.14286 8.425L0 7.275V10.725L9.14286 9.575V8.425ZM14.8571 8.425L24 7.275V10.725L14.8571 9.575V8.425ZM11.4286 6.125L10.2857 0.375H13.7143L12.5714 6.125H11.4286ZM11.4286 11.875L10.2857 17.625H13.7143L12.5714 11.875" fill="#FFDA2C"/>
<path d="M12 11.875C13.578 11.875 14.8572 10.5878 14.8572 9C14.8572 7.41218 13.578 6.125 12 6.125C10.4221 6.125 9.14288 7.41218 9.14288 9C9.14288 10.5878 10.4221 11.875 12 11.875Z" fill="#AF010D"/>
<path d="M12 10.725C12.9468 10.725 13.7143 9.95272 13.7143 9.00002C13.7143 8.04733 12.9468 7.27502 12 7.27502C11.0532 7.27502 10.2857 8.04733 10.2857 9.00002C10.2857 9.95272 11.0532 10.725 12 10.725Z" fill="#FFDA2C"/>
</g>
<defs>
<clipPath id="clip0_172_264">
<rect y="0.375" width="24" height="17.25" rx="3" fill="white"/>
</clipPath>
</defs>
</svg>
