<svg width="24" height="18" viewBox="0 0 24 18" fill="none" xmlns="http://www.w3.org/2000/svg">
<rect y="0.375" width="24" height="17.25" rx="3" fill="#D4AF2C"/>
<rect x="1.14288" y="1.52502" width="21.7143" height="14.95" fill="#AF010D"/>
<path fill-rule="evenodd" clip-rule="evenodd" d="M12 5.86968L10.6663 4.97498L9.77829 5.86968H10.6663L9.77829 6.76438L8 5.86968V10.3432L10.6663 9.44618L9.77829 11.2356H8.88914L9.77829 12.1303L10.6663 11.2356L12 13.025V5.86968ZM13.3337 4.97498L14.2217 5.86968H13.3337L14.2217 6.76438L16 5.86968V10.3432L13.3337 9.44618L14.2217 11.2356H15.1109L14.2217 12.1303L13.3337 11.2356L12 13.025V5.86968L13.3337 4.97498Z" fill="#D4AF2C"/>
<path fill-rule="evenodd" clip-rule="evenodd" d="M10.2857 7.85575C10.2857 6.90125 11.0468 6.125 12 6.125C12.9463 6.125 13.7143 6.89895 13.7143 7.85575V7.4613C13.7143 8.4158 13.1337 9.7107 12.4343 10.3386L12 10.725L11.5657 10.3386C10.8606 9.7061 10.2857 8.4181 10.2857 7.4613V7.85575Z" fill="#1A47B8"/>
<path fill-rule="evenodd" clip-rule="evenodd" d="M10.2857 7.27502H13.7143V8.42502H10.2857V7.27502Z" fill="#AE6A3E"/>
</svg>
