<svg width="637" height="677" viewBox="0 0 637 677" fill="none" xmlns="http://www.w3.org/2000/svg">
    <path class="country-map"
          d="M348.705 361.653C349.594 360.205 351.769 360.455 352.307 362.066L356.777 375.449C357.147 376.558 358.385 377.114 359.46 376.654L378.783 368.39C379.65 368.019 380.658 368.304 381.202 369.074L399.543 395.006C399.721 395.258 399.956 395.466 400.229 395.613L420.222 406.357C420.712 406.62 421.07 407.075 421.211 407.613L430.639 443.686C430.72 443.997 430.726 444.323 430.654 444.636L422.751 479.342C422.665 479.721 422.691 480.117 422.826 480.482L438.677 523.196C438.826 523.598 439.101 523.942 439.461 524.176L475.524 547.649C476.056 547.996 476.392 548.574 476.429 549.208L477.924 574.551C477.97 575.333 477.555 576.071 476.862 576.437L451.317 589.934C450.692 590.264 450.288 590.9 450.254 591.607L448.708 624.019C448.69 624.402 448.562 624.771 448.34 625.083L413.793 673.668C413.242 674.443 412.221 674.723 411.352 674.337L399.198 668.946C398.568 668.667 398.126 668.083 398.029 667.402L395.049 646.59C394.971 646.046 394.673 645.559 394.225 645.241L345.052 610.413C344.653 610.13 344.371 609.712 344.26 609.236L333.089 561.452C333.051 561.288 333.034 561.12 333.037 560.951L334.655 489.913C334.658 489.756 334.68 489.6 334.72 489.449L342.529 459.836C342.701 459.183 342.532 458.488 342.08 457.986L328.486 442.912C328.262 442.664 328.104 442.363 328.026 442.037L320.192 409.2C320.069 408.685 320.156 408.141 320.433 407.69L348.705 361.653Z"
          fill="#FAF0EF" stroke="#E5876C" stroke-width="3" stroke-linecap="round" stroke-linejoin="round"/>
    <path d="M352.736 566L360.512 549.08H363.608L371.48 566H367.688L365.648 561.296L367.112 562.328H357.056L358.544 561.296L356.504 566H352.736ZM362.048 553.016L358.952 560.36L358.304 559.448H365.864L365.312 560.36L362.144 553.016H362.048ZM372.699 566V548.336H376.323V566H372.699ZM386.725 566.264C385.749 566.264 384.877 566.024 384.109 565.544C383.357 565.064 382.853 564.424 382.597 563.624H382.861V566H379.285V548.336H382.909V556.112H382.597C382.869 555.344 383.381 554.736 384.133 554.288C384.901 553.824 385.765 553.592 386.725 553.592C387.797 553.592 388.733 553.848 389.533 554.36C390.333 554.872 390.957 555.6 391.405 556.544C391.869 557.488 392.101 558.624 392.101 559.952C392.101 561.264 391.869 562.392 391.405 563.336C390.957 564.28 390.325 565.008 389.509 565.52C388.709 566.016 387.781 566.264 386.725 566.264ZM385.645 563.528C386.461 563.528 387.133 563.24 387.661 562.664C388.189 562.088 388.453 561.184 388.453 559.952C388.453 558.72 388.189 557.808 387.661 557.216C387.133 556.624 386.461 556.328 385.645 556.328C384.813 556.328 384.133 556.616 383.605 557.192C383.093 557.768 382.837 558.672 382.837 559.904C382.837 561.136 383.093 562.048 383.605 562.64C384.133 563.232 384.813 563.528 385.645 563.528ZM399.177 566.264C398.121 566.264 397.193 566.008 396.393 565.496C395.593 564.984 394.969 564.256 394.521 563.312C394.073 562.368 393.849 561.232 393.849 559.904C393.849 558.592 394.073 557.464 394.521 556.52C394.969 555.576 395.593 554.856 396.393 554.36C397.193 553.848 398.121 553.592 399.177 553.592C400.153 553.592 401.025 553.832 401.793 554.312C402.577 554.776 403.089 555.408 403.329 556.208H403.065L403.353 553.832H406.833C406.785 554.36 406.737 554.896 406.689 555.44C406.657 555.968 406.641 556.488 406.641 557V566H403.041L403.017 563.72H403.305C403.049 564.488 402.537 565.104 401.769 565.568C401.001 566.032 400.137 566.264 399.177 566.264ZM400.281 563.528C401.113 563.528 401.785 563.232 402.297 562.64C402.809 562.048 403.065 561.136 403.065 559.904C403.065 558.672 402.809 557.768 402.297 557.192C401.785 556.616 401.113 556.328 400.281 556.328C399.449 556.328 398.777 556.616 398.265 557.192C397.753 557.768 397.497 558.672 397.497 559.904C397.497 561.136 397.745 562.048 398.241 562.64C398.753 563.232 399.433 563.528 400.281 563.528ZM409.613 566V557C409.613 556.488 409.597 555.968 409.565 555.44C409.533 554.896 409.485 554.36 409.421 553.832H412.901L413.165 556.088H412.877C413.277 555.288 413.845 554.672 414.581 554.24C415.317 553.808 416.173 553.592 417.149 553.592C418.573 553.592 419.637 554.008 420.341 554.84C421.061 555.656 421.421 556.928 421.421 558.656V566H417.797V558.824C417.797 557.944 417.637 557.32 417.317 556.952C416.997 556.584 416.517 556.4 415.877 556.4C415.077 556.4 414.437 556.656 413.957 557.168C413.477 557.664 413.237 558.336 413.237 559.184V566H409.613ZM424.332 566V553.832H427.956V566H424.332ZM424.188 551.84V548.456H428.076V551.84H424.188ZM435.646 566.264C434.59 566.264 433.662 566.008 432.862 565.496C432.062 564.984 431.438 564.256 430.99 563.312C430.542 562.368 430.318 561.232 430.318 559.904C430.318 558.592 430.542 557.464 430.99 556.52C431.438 555.576 432.062 554.856 432.862 554.36C433.662 553.848 434.59 553.592 435.646 553.592C436.622 553.592 437.494 553.832 438.262 554.312C439.046 554.776 439.558 555.408 439.798 556.208H439.534L439.822 553.832H443.302C443.254 554.36 443.206 554.896 443.158 555.44C443.126 555.968 443.11 556.488 443.11 557V566H439.51L439.486 563.72H439.774C439.518 564.488 439.006 565.104 438.238 565.568C437.47 566.032 436.606 566.264 435.646 566.264ZM436.75 563.528C437.582 563.528 438.254 563.232 438.766 562.64C439.278 562.048 439.534 561.136 439.534 559.904C439.534 558.672 439.278 557.768 438.766 557.192C438.254 556.616 437.582 556.328 436.75 556.328C435.918 556.328 435.246 556.616 434.734 557.192C434.222 557.768 433.966 558.672 433.966 559.904C433.966 561.136 434.214 562.048 434.71 562.64C435.222 563.232 435.902 563.528 436.75 563.528Z"
          fill="#E5876C"/>
    <path class="country-map"
          d="M392.613 345.735C392.548 345.816 392.489 345.902 392.438 345.993L379.881 367.942C379.665 368.32 379.332 368.617 378.932 368.788L358.85 377.384C357.774 377.844 356.536 377.287 356.165 376.178L351.727 362.879C351.189 361.267 349.013 361.018 348.125 362.466L320.001 408.295C319.724 408.747 319.637 409.29 319.76 409.805L326.726 439.026C327.112 440.645 325.468 441.999 323.954 441.311L310.272 435.1C309.989 434.972 309.74 434.779 309.545 434.538L282.524 401.2C282.366 401.005 282.173 400.841 281.954 400.718L246.657 380.793C245.729 380.269 245.375 379.109 245.852 378.156L252.947 363.983C253.052 363.774 253.119 363.548 253.145 363.315L259.506 307.73C259.56 307.259 259.78 306.822 260.126 306.498L285.406 282.827C285.486 282.752 285.572 282.684 285.664 282.623L298.912 273.802C299.63 273.323 300.575 273.36 301.255 273.893L322.811 290.81L337.116 305.098C337.303 305.285 337.525 305.433 337.769 305.533L364.807 316.652C364.908 316.693 365.005 316.743 365.098 316.8L397.078 336.574C398.1 337.205 398.338 338.588 397.587 339.525L392.613 345.735Z"
          fill="#E5876C" stroke="#E5876C" stroke-width="3" stroke-linecap="round" stroke-linejoin="round"/>
    <path d="M264.46 352V337.9H267.2L272.1 348.9H271.46L276.36 337.9H279.08V352H276.24V342.42H277.04L272.66 352H270.86L266.46 342.42H267.3V352H264.46ZM286.579 352.22C285.499 352.22 284.559 352.007 283.759 351.58C282.972 351.14 282.359 350.527 281.919 349.74C281.492 348.953 281.279 348.013 281.279 346.92C281.279 345.84 281.492 344.907 281.919 344.12C282.359 343.333 282.972 342.727 283.759 342.3C284.559 341.873 285.499 341.66 286.579 341.66C287.659 341.66 288.599 341.873 289.399 342.3C290.199 342.727 290.812 343.333 291.239 344.12C291.679 344.907 291.899 345.84 291.899 346.92C291.899 348.013 291.679 348.953 291.239 349.74C290.812 350.527 290.199 351.14 289.399 351.58C288.599 352.007 287.659 352.22 286.579 352.22ZM286.579 349.94C287.272 349.94 287.819 349.693 288.219 349.2C288.632 348.707 288.839 347.947 288.839 346.92C288.839 345.893 288.632 345.14 288.219 344.66C287.819 344.18 287.272 343.94 286.579 343.94C285.886 343.94 285.332 344.18 284.919 344.66C284.519 345.14 284.319 345.893 284.319 346.92C284.319 347.947 284.519 348.707 284.919 349.2C285.332 349.693 285.886 349.94 286.579 349.94ZM293.849 352V344.5C293.849 344.073 293.836 343.64 293.809 343.2C293.783 342.747 293.743 342.3 293.689 341.86H296.589L296.809 343.74H296.569C296.903 343.073 297.376 342.56 297.989 342.2C298.603 341.84 299.316 341.66 300.129 341.66C301.316 341.66 302.203 342.007 302.789 342.7C303.389 343.38 303.689 344.44 303.689 345.88V352H300.669V346.02C300.669 345.287 300.536 344.767 300.269 344.46C300.003 344.153 299.603 344 299.069 344C298.403 344 297.869 344.213 297.469 344.64C297.069 345.053 296.869 345.613 296.869 346.32V352H293.849ZM310.855 352.22C309.535 352.22 308.542 351.893 307.875 351.24C307.208 350.573 306.875 349.58 306.875 348.26V344.12H304.955V341.86H306.875V339.38L309.895 338.64V341.86H312.495V344.12H309.895V348.1C309.895 348.74 310.028 349.18 310.295 349.42C310.562 349.66 310.902 349.78 311.315 349.78C311.568 349.78 311.775 349.767 311.935 349.74C312.108 349.7 312.288 349.647 312.475 349.58V351.92C312.222 352.027 311.955 352.1 311.675 352.14C311.395 352.193 311.122 352.22 310.855 352.22ZM319.047 352.22C317.287 352.22 315.914 351.747 314.927 350.8C313.94 349.853 313.447 348.567 313.447 346.94C313.447 345.887 313.654 344.967 314.067 344.18C314.494 343.393 315.08 342.78 315.827 342.34C316.587 341.887 317.474 341.66 318.487 341.66C319.487 341.66 320.32 341.873 320.987 342.3C321.667 342.727 322.174 343.327 322.507 344.1C322.854 344.86 323.027 345.747 323.027 346.76V347.46H315.927V345.96H320.827L320.487 346.24C320.487 345.4 320.314 344.767 319.967 344.34C319.634 343.9 319.147 343.68 318.507 343.68C317.8 343.68 317.254 343.94 316.867 344.46C316.494 344.98 316.307 345.727 316.307 346.7V347.02C316.307 348.007 316.547 348.74 317.027 349.22C317.52 349.7 318.227 349.94 319.147 349.94C319.694 349.94 320.207 349.873 320.687 349.74C321.18 349.593 321.647 349.367 322.087 349.06L322.927 351.06C322.42 351.433 321.834 351.72 321.167 351.92C320.514 352.12 319.807 352.22 319.047 352.22ZM324.943 352V344.5C324.943 344.073 324.93 343.64 324.903 343.2C324.876 342.747 324.836 342.3 324.783 341.86H327.683L327.903 343.74H327.663C327.996 343.073 328.47 342.56 329.083 342.2C329.696 341.84 330.41 341.66 331.223 341.66C332.41 341.66 333.296 342.007 333.883 342.7C334.483 343.38 334.783 344.44 334.783 345.88V352H331.763V346.02C331.763 345.287 331.63 344.767 331.363 344.46C331.096 344.153 330.696 344 330.163 344C329.496 344 328.963 344.213 328.563 344.64C328.163 345.053 327.963 345.613 327.963 346.32V352H324.943ZM342.309 352.22C340.549 352.22 339.175 351.747 338.189 350.8C337.202 349.853 336.709 348.567 336.709 346.94C336.709 345.887 336.915 344.967 337.329 344.18C337.755 343.393 338.342 342.78 339.089 342.34C339.849 341.887 340.735 341.66 341.749 341.66C342.749 341.66 343.582 341.873 344.249 342.3C344.929 342.727 345.435 343.327 345.769 344.1C346.115 344.86 346.289 345.747 346.289 346.76V347.46H339.189V345.96H344.089L343.749 346.24C343.749 345.4 343.575 344.767 343.229 344.34C342.895 343.9 342.409 343.68 341.769 343.68C341.062 343.68 340.515 343.94 340.129 344.46C339.755 344.98 339.569 345.727 339.569 346.7V347.02C339.569 348.007 339.809 348.74 340.289 349.22C340.782 349.7 341.489 349.94 342.409 349.94C342.955 349.94 343.469 349.873 343.949 349.74C344.442 349.593 344.909 349.367 345.349 349.06L346.189 351.06C345.682 351.433 345.095 351.72 344.429 351.92C343.775 352.12 343.069 352.22 342.309 352.22ZM353.025 356.48C352.052 356.48 351.185 356.38 350.425 356.18C349.665 355.993 348.985 355.707 348.385 355.32L348.965 353.16C349.338 353.4 349.732 353.593 350.145 353.74C350.572 353.9 351.005 354.013 351.445 354.08C351.898 354.16 352.345 354.2 352.785 354.2C353.678 354.2 354.345 353.987 354.785 353.56C355.225 353.133 355.445 352.527 355.445 351.74V349.64H355.645C355.432 350.28 355.005 350.793 354.365 351.18C353.725 351.567 353.005 351.76 352.205 351.76C351.298 351.76 350.505 351.553 349.825 351.14C349.158 350.727 348.638 350.14 348.265 349.38C347.892 348.62 347.705 347.727 347.705 346.7C347.705 345.673 347.892 344.78 348.265 344.02C348.638 343.26 349.158 342.68 349.825 342.28C350.505 341.867 351.298 341.66 352.205 341.66C353.018 341.66 353.732 341.853 354.345 342.24C354.972 342.613 355.392 343.113 355.605 343.74L355.445 343.66L355.645 341.86H358.565C358.512 342.3 358.472 342.747 358.445 343.2C358.418 343.64 358.405 344.073 358.405 344.5V351.4C358.405 353.04 357.945 354.293 357.025 355.16C356.105 356.04 354.772 356.48 353.025 356.48ZM353.105 349.48C353.812 349.48 354.372 349.24 354.785 348.76C355.198 348.28 355.405 347.593 355.405 346.7C355.405 345.807 355.198 345.127 354.785 344.66C354.372 344.18 353.812 343.94 353.105 343.94C352.372 343.94 351.792 344.18 351.365 344.66C350.952 345.127 350.745 345.807 350.745 346.7C350.745 347.593 350.952 348.28 351.365 348.76C351.792 349.24 352.372 349.48 353.105 349.48ZM360.841 352V344.54C360.841 344.1 360.828 343.653 360.801 343.2C360.788 342.747 360.754 342.3 360.701 341.86H363.601L363.941 344.82H363.481C363.614 344.1 363.828 343.507 364.121 343.04C364.428 342.573 364.801 342.227 365.241 342C365.694 341.773 366.208 341.66 366.781 341.66C367.034 341.66 367.234 341.673 367.381 341.7C367.528 341.713 367.674 341.747 367.821 341.8L367.801 344.46C367.521 344.34 367.281 344.267 367.081 344.24C366.894 344.2 366.654 344.18 366.361 344.18C365.801 344.18 365.334 344.287 364.961 344.5C364.601 344.713 364.328 345.027 364.141 345.44C363.968 345.853 363.881 346.353 363.881 346.94V352H360.841ZM373.708 352.22C372.628 352.22 371.688 352.007 370.888 351.58C370.101 351.14 369.488 350.527 369.048 349.74C368.621 348.953 368.408 348.013 368.408 346.92C368.408 345.84 368.621 344.907 369.048 344.12C369.488 343.333 370.101 342.727 370.888 342.3C371.688 341.873 372.628 341.66 373.708 341.66C374.788 341.66 375.728 341.873 376.528 342.3C377.328 342.727 377.941 343.333 378.368 344.12C378.808 344.907 379.028 345.84 379.028 346.92C379.028 348.013 378.808 348.953 378.368 349.74C377.941 350.527 377.328 351.14 376.528 351.58C375.728 352.007 374.788 352.22 373.708 352.22ZM373.708 349.94C374.401 349.94 374.948 349.693 375.348 349.2C375.761 348.707 375.968 347.947 375.968 346.92C375.968 345.893 375.761 345.14 375.348 344.66C374.948 344.18 374.401 343.94 373.708 343.94C373.015 343.94 372.461 344.18 372.048 344.66C371.648 345.14 371.448 345.893 371.448 346.92C371.448 347.947 371.648 348.707 372.048 349.2C372.461 349.693 373.015 349.94 373.708 349.94Z"
          fill="white"/>
    <path class="country-map"
          d="M270.435 136.628C270.771 136.823 271.156 136.916 271.544 136.896L298.813 135.468C300.267 135.392 301.312 136.845 300.778 138.199L284.494 179.444C284.191 180.213 284.392 181.089 285 181.649L327.198 220.53C327.698 220.99 327.93 221.673 327.814 222.342L320.067 267.05C319.935 267.815 319.371 268.435 318.621 268.638L302.233 273.086C302.026 273.142 301.829 273.231 301.651 273.35L287.388 282.811C287.296 282.872 287.21 282.94 287.129 283.015L261.709 306.729C261.361 307.054 261.141 307.491 261.086 307.964L254.975 361.168C254.817 362.545 253.339 363.348 252.097 362.73L176.815 325.275C176.548 325.142 176.314 324.951 176.13 324.716L142.379 281.536C142.247 281.367 142.088 281.22 141.909 281.101L108.098 258.671C107.999 258.606 107.907 258.532 107.822 258.451L67.3494 219.789C67.2501 219.694 67.1608 219.589 67.0829 219.476L46.0092 188.829L2.76385 141.015C2.2903 140.492 2.12786 139.757 2.33642 139.083L14.204 100.706C14.6121 99.3863 16.2037 98.8679 17.3109 99.6942L46.008 121.111C46.9048 121.78 48.1763 121.583 48.8289 120.674L63.3738 100.412C63.7318 99.9132 64.2989 99.6066 64.9121 99.58L101.146 98.0123C101.334 98.0041 101.522 98.0226 101.705 98.0671L174.519 115.778C174.692 115.82 174.87 115.839 175.048 115.834L231.261 114.236C231.633 114.225 232 114.318 232.322 114.505L270.435 136.628Z"
          fill="#FAF0EF" stroke="#E5876C" stroke-width="3" stroke-linecap="round" stroke-linejoin="round"/>
    <path d="M94.728 198V181.08H102.528C104.384 181.08 105.816 181.472 106.824 182.256C107.832 183.04 108.336 184.112 108.336 185.472C108.336 186.48 108.032 187.336 107.424 188.04C106.832 188.744 106.016 189.216 104.976 189.456V189.072C106.192 189.28 107.128 189.744 107.784 190.464C108.456 191.168 108.792 192.088 108.792 193.224C108.792 194.728 108.256 195.904 107.184 196.752C106.128 197.584 104.664 198 102.792 198H94.728ZM98.304 195.216H102.336C103.264 195.216 103.976 195.04 104.472 194.688C104.968 194.336 105.216 193.776 105.216 193.008C105.216 192.224 104.968 191.664 104.472 191.328C103.976 190.976 103.264 190.8 102.336 190.8H98.304V195.216ZM98.304 188.04H101.856C102.832 188.04 103.552 187.864 104.016 187.512C104.48 187.16 104.712 186.632 104.712 185.928C104.712 185.24 104.48 184.72 104.016 184.368C103.552 184.016 102.832 183.84 101.856 183.84H98.304V188.04ZM116.959 198.264C115.663 198.264 114.535 198.008 113.575 197.496C112.631 196.968 111.895 196.232 111.367 195.288C110.855 194.344 110.599 193.216 110.599 191.904C110.599 190.608 110.855 189.488 111.367 188.544C111.895 187.6 112.631 186.872 113.575 186.36C114.535 185.848 115.663 185.592 116.959 185.592C118.255 185.592 119.383 185.848 120.343 186.36C121.303 186.872 122.039 187.6 122.551 188.544C123.079 189.488 123.343 190.608 123.343 191.904C123.343 193.216 123.079 194.344 122.551 195.288C122.039 196.232 121.303 196.968 120.343 197.496C119.383 198.008 118.255 198.264 116.959 198.264ZM116.959 195.528C117.791 195.528 118.447 195.232 118.927 194.64C119.423 194.048 119.671 193.136 119.671 191.904C119.671 190.672 119.423 189.768 118.927 189.192C118.447 188.616 117.791 188.328 116.959 188.328C116.127 188.328 115.463 188.616 114.967 189.192C114.487 189.768 114.247 190.672 114.247 191.904C114.247 193.136 114.487 194.048 114.967 194.64C115.463 195.232 116.127 195.528 116.959 195.528ZM130.171 198.264C129.083 198.264 128.091 198.144 127.195 197.904C126.299 197.664 125.539 197.328 124.915 196.896L125.851 194.496C126.475 194.88 127.163 195.184 127.915 195.408C128.683 195.632 129.443 195.744 130.195 195.744C130.899 195.744 131.419 195.632 131.755 195.408C132.091 195.184 132.259 194.88 132.259 194.496C132.259 194.176 132.147 193.928 131.923 193.752C131.715 193.576 131.387 193.448 130.939 193.368L128.467 192.912C127.427 192.704 126.635 192.32 126.091 191.76C125.547 191.2 125.275 190.472 125.275 189.576C125.275 188.792 125.483 188.104 125.899 187.512C126.331 186.904 126.947 186.432 127.747 186.096C128.547 185.76 129.483 185.592 130.555 185.592C131.467 185.592 132.331 185.704 133.147 185.928C133.963 186.152 134.659 186.496 135.235 186.96L134.251 189.288C133.755 188.92 133.179 188.624 132.523 188.4C131.883 188.176 131.267 188.064 130.675 188.064C129.907 188.064 129.355 188.192 129.019 188.448C128.683 188.688 128.515 189 128.515 189.384C128.515 189.672 128.611 189.912 128.803 190.104C129.011 190.296 129.323 190.44 129.739 190.536L132.235 190.992C133.307 191.184 134.123 191.544 134.683 192.072C135.243 192.6 135.523 193.328 135.523 194.256C135.523 195.104 135.299 195.824 134.851 196.416C134.403 197.008 133.771 197.464 132.955 197.784C132.155 198.104 131.227 198.264 130.171 198.264ZM137.777 198V189C137.777 188.488 137.761 187.968 137.729 187.44C137.697 186.896 137.649 186.36 137.585 185.832H141.065L141.329 188.088H141.041C141.441 187.288 142.009 186.672 142.745 186.24C143.481 185.808 144.337 185.592 145.313 185.592C146.737 185.592 147.801 186.008 148.505 186.84C149.225 187.656 149.585 188.928 149.585 190.656V198H145.961V190.824C145.961 189.944 145.801 189.32 145.481 188.952C145.161 188.584 144.681 188.4 144.041 188.4C143.241 188.4 142.601 188.656 142.121 189.168C141.641 189.664 141.401 190.336 141.401 191.184V198H137.777ZM152.496 198V185.832H156.12V198H152.496ZM152.352 183.84V180.456H156.24V183.84H152.352ZM163.81 198.264C162.754 198.264 161.826 198.008 161.026 197.496C160.226 196.984 159.602 196.256 159.154 195.312C158.706 194.368 158.482 193.232 158.482 191.904C158.482 190.592 158.706 189.464 159.154 188.52C159.602 187.576 160.226 186.856 161.026 186.36C161.826 185.848 162.754 185.592 163.81 185.592C164.786 185.592 165.658 185.832 166.426 186.312C167.21 186.776 167.722 187.408 167.962 188.208H167.698L167.986 185.832H171.466C171.418 186.36 171.37 186.896 171.322 187.44C171.29 187.968 171.274 188.488 171.274 189V198H167.674L167.65 195.72H167.938C167.682 196.488 167.17 197.104 166.402 197.568C165.634 198.032 164.77 198.264 163.81 198.264ZM164.914 195.528C165.746 195.528 166.418 195.232 166.93 194.64C167.442 194.048 167.698 193.136 167.698 191.904C167.698 190.672 167.442 189.768 166.93 189.192C166.418 188.616 165.746 188.328 164.914 188.328C164.082 188.328 163.41 188.616 162.898 189.192C162.386 189.768 162.13 190.672 162.13 191.904C162.13 193.136 162.378 194.048 162.874 194.64C163.386 195.232 164.066 195.528 164.914 195.528ZM99.216 222.264C98.16 222.264 97.232 222.008 96.432 221.496C95.632 220.984 95.008 220.256 94.56 219.312C94.112 218.368 93.888 217.232 93.888 215.904C93.888 214.592 94.112 213.464 94.56 212.52C95.008 211.576 95.632 210.856 96.432 210.36C97.232 209.848 98.16 209.592 99.216 209.592C100.192 209.592 101.064 209.832 101.832 210.312C102.616 210.776 103.128 211.408 103.368 212.208H103.104L103.392 209.832H106.872C106.824 210.36 106.776 210.896 106.728 211.44C106.696 211.968 106.68 212.488 106.68 213V222H103.08L103.056 219.72H103.344C103.088 220.488 102.576 221.104 101.808 221.568C101.04 222.032 100.176 222.264 99.216 222.264ZM100.32 219.528C101.152 219.528 101.824 219.232 102.336 218.64C102.848 218.048 103.104 217.136 103.104 215.904C103.104 214.672 102.848 213.768 102.336 213.192C101.824 212.616 101.152 212.328 100.32 212.328C99.488 212.328 98.816 212.616 98.304 213.192C97.792 213.768 97.536 214.672 97.536 215.904C97.536 217.136 97.784 218.048 98.28 218.64C98.792 219.232 99.472 219.528 100.32 219.528ZM109.652 222V213C109.652 212.488 109.636 211.968 109.604 211.44C109.572 210.896 109.524 210.36 109.46 209.832H112.94L113.204 212.088H112.916C113.316 211.288 113.884 210.672 114.62 210.24C115.356 209.808 116.212 209.592 117.188 209.592C118.612 209.592 119.676 210.008 120.38 210.84C121.1 211.656 121.46 212.928 121.46 214.656V222H117.836V214.824C117.836 213.944 117.676 213.32 117.356 212.952C117.036 212.584 116.556 212.4 115.916 212.4C115.116 212.4 114.476 212.656 113.996 213.168C113.516 213.664 113.276 214.336 113.276 215.184V222H109.652ZM129.147 222.264C128.091 222.264 127.155 222.008 126.339 221.496C125.539 220.984 124.907 220.256 124.443 219.312C123.995 218.368 123.771 217.232 123.771 215.904C123.771 214.592 123.995 213.464 124.443 212.52C124.891 211.576 125.523 210.856 126.339 210.36C127.155 209.848 128.091 209.592 129.147 209.592C130.107 209.592 130.963 209.824 131.715 210.288C132.483 210.736 132.995 211.344 133.251 212.112H132.939V204.336H136.563V222H132.987V219.624H133.299C133.043 220.424 132.531 221.064 131.763 221.544C130.995 222.024 130.123 222.264 129.147 222.264ZM130.227 219.528C131.059 219.528 131.731 219.232 132.243 218.64C132.755 218.048 133.011 217.136 133.011 215.904C133.011 214.672 132.755 213.768 132.243 213.192C131.731 212.616 131.059 212.328 130.227 212.328C129.395 212.328 128.715 212.616 128.187 213.192C127.675 213.768 127.419 214.672 127.419 215.904C127.419 217.136 127.675 218.048 128.187 218.64C128.715 219.232 129.395 219.528 130.227 219.528ZM146.548 222V205.08H150.292V211.872H158.044V205.08H161.812V222H158.044V214.968H150.292V222H146.548ZM171.131 222.264C169.019 222.264 167.371 221.696 166.187 220.56C165.003 219.424 164.411 217.88 164.411 215.928C164.411 214.664 164.659 213.56 165.155 212.616C165.667 211.672 166.371 210.936 167.267 210.408C168.179 209.864 169.243 209.592 170.459 209.592C171.659 209.592 172.659 209.848 173.459 210.36C174.275 210.872 174.883 211.592 175.283 212.52C175.699 213.432 175.907 214.496 175.907 215.712V216.552H167.387V214.752H173.267L172.859 215.088C172.859 214.08 172.651 213.32 172.235 212.808C171.835 212.28 171.251 212.016 170.483 212.016C169.635 212.016 168.979 212.328 168.515 212.952C168.067 213.576 167.843 214.472 167.843 215.64V216.024C167.843 217.208 168.131 218.088 168.707 218.664C169.299 219.24 170.147 219.528 171.251 219.528C171.907 219.528 172.523 219.448 173.099 219.288C173.691 219.112 174.251 218.84 174.779 218.472L175.787 220.872C175.179 221.32 174.475 221.664 173.675 221.904C172.891 222.144 172.043 222.264 171.131 222.264ZM178.183 222V213.048C178.183 212.52 178.167 211.984 178.135 211.44C178.119 210.896 178.079 210.36 178.015 209.832H181.495L181.903 213.384H181.351C181.511 212.52 181.767 211.808 182.119 211.248C182.487 210.688 182.935 210.272 183.463 210C184.007 209.728 184.623 209.592 185.311 209.592C185.615 209.592 185.855 209.608 186.031 209.64C186.207 209.656 186.383 209.696 186.559 209.76L186.535 212.952C186.199 212.808 185.911 212.72 185.671 212.688C185.447 212.64 185.159 212.616 184.807 212.616C184.135 212.616 183.575 212.744 183.127 213C182.695 213.256 182.367 213.632 182.143 214.128C181.935 214.624 181.831 215.224 181.831 215.928V222H178.183ZM187.878 222V219.648L195.126 211.68V212.544H187.878V209.832H198.39V212.208L191.046 220.248L191.022 219.312H198.63V222H187.878ZM206.85 222.264C204.738 222.264 203.09 221.696 201.906 220.56C200.722 219.424 200.13 217.88 200.13 215.928C200.13 214.664 200.378 213.56 200.874 212.616C201.386 211.672 202.09 210.936 202.986 210.408C203.898 209.864 204.962 209.592 206.178 209.592C207.378 209.592 208.378 209.848 209.178 210.36C209.994 210.872 210.602 211.592 211.002 212.52C211.418 213.432 211.626 214.496 211.626 215.712V216.552H203.106V214.752H208.986L208.578 215.088C208.578 214.08 208.37 213.32 207.954 212.808C207.554 212.28 206.97 212.016 206.202 212.016C205.354 212.016 204.698 212.328 204.234 212.952C203.786 213.576 203.562 214.472 203.562 215.64V216.024C203.562 217.208 203.85 218.088 204.426 218.664C205.018 219.24 205.866 219.528 206.97 219.528C207.626 219.528 208.242 219.448 208.818 219.288C209.41 219.112 209.97 218.84 210.498 218.472L211.506 220.872C210.898 221.32 210.194 221.664 209.394 221.904C208.61 222.144 207.762 222.264 206.85 222.264ZM219.71 227.376C218.542 227.376 217.502 227.256 216.59 227.016C215.678 226.792 214.862 226.448 214.142 225.984L214.838 223.392C215.286 223.68 215.758 223.912 216.254 224.088C216.766 224.28 217.286 224.416 217.814 224.496C218.358 224.592 218.894 224.64 219.422 224.64C220.494 224.64 221.294 224.384 221.822 223.872C222.35 223.36 222.614 222.632 222.614 221.688V219.168H222.854C222.598 219.936 222.086 220.552 221.318 221.016C220.55 221.48 219.686 221.712 218.726 221.712C217.638 221.712 216.686 221.464 215.87 220.968C215.07 220.472 214.446 219.768 213.998 218.856C213.55 217.944 213.326 216.872 213.326 215.64C213.326 214.408 213.55 213.336 213.998 212.424C214.446 211.512 215.07 210.816 215.87 210.336C216.686 209.84 217.638 209.592 218.726 209.592C219.702 209.592 220.558 209.824 221.294 210.288C222.046 210.736 222.55 211.336 222.806 212.088L222.614 211.992L222.854 209.832H226.358C226.294 210.36 226.246 210.896 226.214 211.44C226.182 211.968 226.166 212.488 226.166 213V221.28C226.166 223.248 225.614 224.752 224.51 225.792C223.406 226.848 221.806 227.376 219.71 227.376ZM219.806 218.976C220.654 218.976 221.326 218.688 221.822 218.112C222.318 217.536 222.566 216.712 222.566 215.64C222.566 214.568 222.318 213.752 221.822 213.192C221.326 212.616 220.654 212.328 219.806 212.328C218.926 212.328 218.23 212.616 217.718 213.192C217.222 213.752 216.974 214.568 216.974 215.64C216.974 216.712 217.222 217.536 217.718 218.112C218.23 218.688 218.926 218.976 219.806 218.976ZM234.873 222.264C233.577 222.264 232.449 222.008 231.489 221.496C230.545 220.968 229.809 220.232 229.281 219.288C228.769 218.344 228.513 217.216 228.513 215.904C228.513 214.608 228.769 213.488 229.281 212.544C229.809 211.6 230.545 210.872 231.489 210.36C232.449 209.848 233.577 209.592 234.873 209.592C236.169 209.592 237.297 209.848 238.257 210.36C239.217 210.872 239.953 211.6 240.465 212.544C240.993 213.488 241.257 214.608 241.257 215.904C241.257 217.216 240.993 218.344 240.465 219.288C239.953 220.232 239.217 220.968 238.257 221.496C237.297 222.008 236.169 222.264 234.873 222.264ZM234.873 219.528C235.705 219.528 236.361 219.232 236.841 218.64C237.337 218.048 237.585 217.136 237.585 215.904C237.585 214.672 237.337 213.768 236.841 213.192C236.361 212.616 235.705 212.328 234.873 212.328C234.041 212.328 233.377 212.616 232.881 213.192C232.401 213.768 232.161 214.672 232.161 215.904C232.161 217.136 232.401 218.048 232.881 218.64C233.377 219.232 234.041 219.528 234.873 219.528ZM246.844 222L241.588 209.832H245.404L248.884 218.664H248.092L251.692 209.832H255.268L249.964 222H246.844ZM256.535 222V209.832H260.159V222H256.535ZM256.391 207.84V204.456H260.279V207.84H256.391ZM263.121 222V213C263.121 212.488 263.105 211.968 263.073 211.44C263.041 210.896 262.993 210.36 262.929 209.832H266.409L266.673 212.088H266.385C266.785 211.288 267.353 210.672 268.089 210.24C268.825 209.808 269.681 209.592 270.657 209.592C272.081 209.592 273.145 210.008 273.849 210.84C274.569 211.656 274.929 212.928 274.929 214.656V222H271.305V214.824C271.305 213.944 271.145 213.32 270.825 212.952C270.505 212.584 270.025 212.4 269.385 212.4C268.585 212.4 267.945 212.656 267.465 213.168C266.985 213.664 266.745 214.336 266.745 215.184V222H263.121ZM282.568 222.264C281.512 222.264 280.584 222.008 279.784 221.496C278.984 220.984 278.36 220.256 277.912 219.312C277.464 218.368 277.24 217.232 277.24 215.904C277.24 214.592 277.464 213.464 277.912 212.52C278.36 211.576 278.984 210.856 279.784 210.36C280.584 209.848 281.512 209.592 282.568 209.592C283.544 209.592 284.416 209.832 285.184 210.312C285.968 210.776 286.48 211.408 286.72 212.208H286.456L286.744 209.832H290.224C290.176 210.36 290.128 210.896 290.08 211.44C290.048 211.968 290.032 212.488 290.032 213V222H286.432L286.408 219.72H286.696C286.44 220.488 285.928 221.104 285.16 221.568C284.392 222.032 283.528 222.264 282.568 222.264ZM283.672 219.528C284.504 219.528 285.176 219.232 285.688 218.64C286.2 218.048 286.456 217.136 286.456 215.904C286.456 214.672 286.2 213.768 285.688 213.192C285.176 212.616 284.504 212.328 283.672 212.328C282.84 212.328 282.168 212.616 281.656 213.192C281.144 213.768 280.888 214.672 280.888 215.904C280.888 217.136 281.136 218.048 281.632 218.64C282.144 219.232 282.824 219.528 283.672 219.528Z"
          fill="#E5876C"/>
    <path class="country-map"
          d="M575.981 198.507C576.637 199.229 576.676 200.32 576.074 201.087L559.932 221.643C559.533 222.151 559.404 222.819 559.585 223.438L570.488 260.844C570.586 261.179 570.769 261.482 571.019 261.724L614.61 303.78C615.385 304.528 615.429 305.756 614.708 306.557L587.138 337.207C586.94 337.426 586.794 337.687 586.709 337.97L577.407 368.993C577.225 369.601 577.342 370.259 577.723 370.767L585.866 381.631C586.432 382.387 586.393 383.436 585.771 384.147L576.031 395.286C575.689 395.677 575.209 395.919 574.691 395.962L536.615 399.137L510.43 403.761C509.614 403.905 508.793 403.531 508.367 402.82L504.955 397.131C504.512 396.393 504.591 395.454 505.151 394.801L513.627 384.907C513.829 384.671 513.973 384.392 514.048 384.091L519.693 361.498C520.038 360.12 518.876 358.833 517.47 359.034L510.119 360.085C509.466 360.178 508.808 359.943 508.362 359.456L491.602 341.164C491.373 340.914 491.083 340.726 490.761 340.618L477.233 336.106C476.868 335.984 476.545 335.759 476.304 335.458L464.041 320.122C463.825 319.852 463.543 319.642 463.222 319.514L447.949 313.401C447.661 313.286 447.403 313.105 447.197 312.873L435.521 299.73C434.942 299.079 434.009 298.877 433.213 299.231L420.874 304.719C420.304 304.972 419.885 305.477 419.741 306.083L412.127 338.079C411.967 338.752 411.47 339.294 410.814 339.513L398.851 343.503C396.96 344.133 395.412 341.913 396.656 340.357L397.5 339.302C398.249 338.365 398.01 336.984 396.991 336.353L365.026 316.554C364.933 316.496 364.836 316.447 364.735 316.405L337.714 305.273C337.47 305.173 337.248 305.025 337.061 304.838L322.765 290.532L303.207 275.157C301.915 274.142 302.331 272.088 303.917 271.655L316.676 268.174C317.425 267.969 317.988 267.349 318.12 266.584L325.82 221.9C325.935 221.233 325.705 220.553 325.208 220.093L283.264 181.234C282.66 180.675 282.461 179.802 282.762 179.036L298.948 137.811C299.48 136.457 298.434 135.006 296.981 135.083L273.425 136.323C271.755 136.411 270.721 134.535 271.687 133.17L295.895 98.9741C296.446 98.1965 296.371 97.1385 295.717 96.4456L269.45 68.6177C269.351 68.5127 269.264 68.3973 269.19 68.2735L246.174 29.8933C245.552 28.8564 245.985 27.5092 247.095 27.0291L304.472 2.20359C304.781 2.07002 305.118 2.01647 305.453 2.04788L356.19 6.80706C356.579 6.84352 356.949 6.99295 357.254 7.23692L404.963 45.4255C405.242 45.6485 405.456 45.9419 405.583 46.2754L418.05 79.0224C418.241 79.5239 418.625 79.9277 419.117 80.1429L469.312 102.115C469.869 102.358 470.284 102.841 470.442 103.427L481.325 143.876C481.458 144.37 481.775 144.794 482.211 145.061L530.456 174.648C531.223 175.118 532.21 175.018 532.867 174.404L555.006 153.73C555.633 153.144 556.564 153.024 557.32 153.431L574.866 162.884C576.01 163.5 576.272 165.027 575.398 165.99L562.139 180.583C561.446 181.345 561.446 182.51 562.139 183.272L575.981 198.507Z"
          fill="#FAF0EF" stroke="#E5876C" stroke-width="3" stroke-linecap="round" stroke-linejoin="round"/>
    <path d="M386.772 223.396C384.732 223.396 382.824 223.144 381.048 222.64C379.272 222.136 377.76 221.44 376.512 220.552L378.168 216.16C378.984 216.712 379.848 217.18 380.76 217.564C381.672 217.948 382.632 218.248 383.64 218.464C384.648 218.656 385.704 218.752 386.808 218.752C388.536 218.752 389.76 218.488 390.48 217.96C391.224 217.432 391.596 216.76 391.596 215.944C391.596 215.2 391.344 214.636 390.84 214.252C390.36 213.844 389.472 213.496 388.176 213.208L383.928 212.344C381.6 211.864 379.86 211.048 378.708 209.896C377.556 208.744 376.98 207.208 376.98 205.288C376.98 203.656 377.412 202.24 378.276 201.04C379.14 199.84 380.352 198.904 381.912 198.232C383.496 197.56 385.344 197.224 387.456 197.224C389.256 197.224 390.936 197.476 392.496 197.98C394.056 198.484 395.34 199.204 396.348 200.14L394.692 204.244C393.708 203.452 392.604 202.864 391.38 202.48C390.18 202.072 388.836 201.868 387.348 201.868C385.788 201.868 384.588 202.144 383.748 202.696C382.932 203.248 382.524 204.004 382.524 204.964C382.524 205.684 382.776 206.272 383.28 206.728C383.784 207.16 384.672 207.508 385.944 207.772L390.12 208.6C392.496 209.08 394.26 209.884 395.412 211.012C396.564 212.14 397.14 213.64 397.14 215.512C397.14 217.096 396.708 218.476 395.844 219.652C395.004 220.828 393.804 221.752 392.244 222.424C390.708 223.072 388.884 223.396 386.772 223.396ZM410.107 223.396C406.939 223.396 404.467 222.544 402.691 220.84C400.915 219.136 400.027 216.82 400.027 213.892C400.027 211.996 400.399 210.34 401.143 208.924C401.911 207.508 402.967 206.404 404.311 205.612C405.679 204.796 407.275 204.388 409.099 204.388C410.899 204.388 412.399 204.772 413.599 205.54C414.823 206.308 415.735 207.388 416.335 208.78C416.959 210.148 417.271 211.744 417.271 213.568V214.828H404.491V212.128H413.311L412.699 212.632C412.699 211.12 412.387 209.98 411.763 209.212C411.163 208.42 410.287 208.024 409.135 208.024C407.863 208.024 406.879 208.492 406.183 209.428C405.511 210.364 405.175 211.708 405.175 213.46V214.036C405.175 215.812 405.607 217.132 406.471 217.996C407.359 218.86 408.631 219.292 410.287 219.292C411.271 219.292 412.195 219.172 413.059 218.932C413.947 218.668 414.787 218.26 415.579 217.708L417.091 221.308C416.179 221.98 415.123 222.496 413.923 222.856C412.747 223.216 411.475 223.396 410.107 223.396ZM420.684 223V209.572C420.684 208.78 420.66 207.976 420.612 207.16C420.588 206.344 420.528 205.54 420.432 204.748H425.652L426.264 210.076H425.436C425.676 208.78 426.06 207.712 426.588 206.872C427.14 206.032 427.812 205.408 428.604 205C429.42 204.592 430.344 204.388 431.376 204.388C431.832 204.388 432.192 204.412 432.456 204.46C432.72 204.484 432.984 204.544 433.248 204.64L433.212 209.428C432.708 209.212 432.276 209.08 431.916 209.032C431.58 208.96 431.148 208.924 430.62 208.924C429.612 208.924 428.772 209.116 428.1 209.5C427.452 209.884 426.96 210.448 426.624 211.192C426.312 211.936 426.156 212.836 426.156 213.892V223H420.684ZM446.681 223.396C445.217 223.396 443.909 223.036 442.757 222.316C441.629 221.596 440.873 220.636 440.489 219.436H440.885V223H435.521V196.504H440.957V208.168H440.489C440.897 207.016 441.665 206.104 442.793 205.432C443.945 204.736 445.241 204.388 446.681 204.388C448.289 204.388 449.693 204.772 450.893 205.54C452.093 206.308 453.029 207.4 453.701 208.816C454.397 210.232 454.745 211.936 454.745 213.928C454.745 215.896 454.397 217.588 453.701 219.004C453.029 220.42 452.081 221.512 450.857 222.28C449.657 223.024 448.265 223.396 446.681 223.396ZM445.061 219.292C446.285 219.292 447.293 218.86 448.085 217.996C448.877 217.132 449.273 215.776 449.273 213.928C449.273 212.08 448.877 210.712 448.085 209.824C447.293 208.936 446.285 208.492 445.061 208.492C443.813 208.492 442.793 208.924 442.001 209.788C441.233 210.652 440.849 212.008 440.849 213.856C440.849 215.704 441.233 217.072 442.001 217.96C442.793 218.848 443.813 219.292 445.061 219.292ZM458.267 223V204.748H463.703V223H458.267ZM458.051 201.76V196.684H463.883V201.76H458.051ZM475.238 223.396C473.654 223.396 472.262 223.012 471.062 222.244C469.862 221.476 468.926 220.384 468.254 218.968C467.582 217.552 467.246 215.848 467.246 213.856C467.246 211.888 467.582 210.196 468.254 208.78C468.926 207.364 469.862 206.284 471.062 205.54C472.262 204.772 473.654 204.388 475.238 204.388C476.702 204.388 478.01 204.748 479.162 205.468C480.338 206.164 481.106 207.112 481.466 208.312H481.07L481.502 204.748H486.722C486.65 205.54 486.578 206.344 486.506 207.16C486.458 207.952 486.434 208.732 486.434 209.5V223H481.034L480.998 219.58H481.43C481.046 220.732 480.278 221.656 479.126 222.352C477.974 223.048 476.678 223.396 475.238 223.396ZM476.894 219.292C478.142 219.292 479.15 218.848 479.918 217.96C480.686 217.072 481.07 215.704 481.07 213.856C481.07 212.008 480.686 210.652 479.918 209.788C479.15 208.924 478.142 208.492 476.894 208.492C475.646 208.492 474.638 208.924 473.87 209.788C473.102 210.652 472.718 212.008 472.718 213.856C472.718 215.704 473.09 217.072 473.834 217.96C474.602 218.848 475.622 219.292 476.894 219.292Z"
          fill="#E5876C"/>
    <path class="country-map"
          d="M634.635 496.274C634.837 497.349 634.139 498.387 633.067 498.604L619.586 501.334C619.092 501.434 618.653 501.717 618.359 502.127L606.495 518.64C606.104 519.184 605.467 519.496 604.798 519.472L561.291 517.899C560.817 517.882 560.353 518.033 559.981 518.326L531.844 540.48C531.571 540.695 531.246 540.835 530.902 540.887L477.161 548.887C476.673 548.96 476.176 548.85 475.764 548.578L439.733 524.789C439.376 524.553 439.104 524.209 438.957 523.807L423.202 480.743C423.07 480.383 423.045 479.992 423.129 479.618L430.686 445.955C430.915 444.936 431.89 444.264 432.924 444.414L440.301 445.481C441.447 445.646 442.494 444.807 442.581 443.653L443.938 425.795C443.998 425.002 444.522 424.32 445.273 424.058L490.969 408.106L510.39 403.191L537.901 398.277L575.975 395.065C576.468 395.023 576.959 395.166 577.353 395.465L621.439 428.938C621.834 429.238 622.103 429.674 622.195 430.161L634.635 496.274Z"
          fill="#FAF0EF" stroke="#E5876C" stroke-width="3" stroke-linecap="round" stroke-linejoin="round"/>
    <path d="M448.44 477V462.9H450.76L458.42 472.64H457.88V462.9H460.78V477H458.46L450.82 467.26H451.34V477H448.44ZM468.235 477.22C467.155 477.22 466.215 477.007 465.415 476.58C464.629 476.14 464.015 475.527 463.575 474.74C463.149 473.953 462.935 473.013 462.935 471.92C462.935 470.84 463.149 469.907 463.575 469.12C464.015 468.333 464.629 467.727 465.415 467.3C466.215 466.873 467.155 466.66 468.235 466.66C469.315 466.66 470.255 466.873 471.055 467.3C471.855 467.727 472.469 468.333 472.895 469.12C473.335 469.907 473.555 470.84 473.555 471.92C473.555 473.013 473.335 473.953 472.895 474.74C472.469 475.527 471.855 476.14 471.055 476.58C470.255 477.007 469.315 477.22 468.235 477.22ZM468.235 474.94C468.929 474.94 469.475 474.693 469.875 474.2C470.289 473.707 470.495 472.947 470.495 471.92C470.495 470.893 470.289 470.14 469.875 469.66C469.475 469.18 468.929 468.94 468.235 468.94C467.542 468.94 466.989 469.18 466.575 469.66C466.175 470.14 465.975 470.893 465.975 471.92C465.975 472.947 466.175 473.707 466.575 474.2C466.989 474.693 467.542 474.94 468.235 474.94ZM475.486 477V469.54C475.486 469.1 475.472 468.653 475.446 468.2C475.432 467.747 475.399 467.3 475.346 466.86H478.246L478.586 469.82H478.126C478.259 469.1 478.472 468.507 478.766 468.04C479.072 467.573 479.446 467.227 479.886 467C480.339 466.773 480.852 466.66 481.426 466.66C481.679 466.66 481.879 466.673 482.026 466.7C482.172 466.713 482.319 466.747 482.466 466.8L482.446 469.46C482.166 469.34 481.926 469.267 481.726 469.24C481.539 469.2 481.299 469.18 481.006 469.18C480.446 469.18 479.979 469.287 479.606 469.5C479.246 469.713 478.972 470.027 478.786 470.44C478.612 470.853 478.526 471.353 478.526 471.94V477H475.486ZM489.054 477.22C487.734 477.22 486.741 476.893 486.074 476.24C485.408 475.573 485.074 474.58 485.074 473.26V469.12H483.154V466.86H485.074V464.38L488.094 463.64V466.86H490.694V469.12H488.094V473.1C488.094 473.74 488.228 474.18 488.494 474.42C488.761 474.66 489.101 474.78 489.514 474.78C489.768 474.78 489.974 474.767 490.134 474.74C490.308 474.7 490.488 474.647 490.674 474.58V476.92C490.421 477.027 490.154 477.1 489.874 477.14C489.594 477.193 489.321 477.22 489.054 477.22ZM492.244 477V462.28H495.264V468.76H494.964C495.284 468.08 495.757 467.56 496.384 467.2C497.011 466.84 497.731 466.66 498.544 466.66C499.731 466.66 500.617 467.007 501.204 467.7C501.791 468.38 502.084 469.427 502.084 470.84V477H499.064V470.98C499.064 470.273 498.931 469.767 498.664 469.46C498.411 469.153 498.011 469 497.464 469C496.797 469 496.264 469.207 495.864 469.62C495.464 470.033 495.264 470.587 495.264 471.28V477H492.244ZM510.374 477V462.9H513.114L518.014 473.9H517.374L522.274 462.9H524.994V477H522.154V467.42H522.954L518.574 477H516.774L512.374 467.42H513.214V477H510.374ZM531.633 477.22C530.753 477.22 529.98 477.007 529.313 476.58C528.646 476.153 528.126 475.547 527.753 474.76C527.38 473.973 527.193 473.027 527.193 471.92C527.193 470.827 527.38 469.887 527.753 469.1C528.126 468.313 528.646 467.713 529.313 467.3C529.98 466.873 530.753 466.66 531.633 466.66C532.446 466.66 533.173 466.86 533.813 467.26C534.466 467.647 534.893 468.173 535.093 468.84H534.873L535.113 466.86H538.013C537.973 467.3 537.933 467.747 537.893 468.2C537.866 468.64 537.853 469.073 537.853 469.5V477H534.853L534.833 475.1H535.073C534.86 475.74 534.433 476.253 533.793 476.64C533.153 477.027 532.433 477.22 531.633 477.22ZM532.553 474.94C533.246 474.94 533.806 474.693 534.233 474.2C534.66 473.707 534.873 472.947 534.873 471.92C534.873 470.893 534.66 470.14 534.233 469.66C533.806 469.18 533.246 468.94 532.553 468.94C531.86 468.94 531.3 469.18 530.873 469.66C530.446 470.14 530.233 470.893 530.233 471.92C530.233 472.947 530.44 473.707 530.853 474.2C531.28 474.693 531.846 474.94 532.553 474.94ZM545.21 477.22C544.13 477.22 543.183 477.007 542.37 476.58C541.557 476.153 540.93 475.54 540.49 474.74C540.05 473.94 539.83 472.993 539.83 471.9C539.83 470.793 540.05 469.853 540.49 469.08C540.943 468.293 541.57 467.693 542.37 467.28C543.183 466.867 544.13 466.66 545.21 466.66C545.89 466.66 546.55 466.76 547.19 466.96C547.843 467.16 548.377 467.44 548.79 467.8L547.91 469.88C547.577 469.573 547.19 469.347 546.75 469.2C546.323 469.04 545.91 468.96 545.51 468.96C544.697 468.96 544.063 469.213 543.61 469.72C543.157 470.227 542.93 470.96 542.93 471.92C542.93 472.88 543.157 473.613 543.61 474.12C544.063 474.627 544.697 474.88 545.51 474.88C545.897 474.88 546.303 474.807 546.73 474.66C547.17 474.513 547.563 474.293 547.91 474L548.79 476.06C548.363 476.42 547.823 476.707 547.17 476.92C546.53 477.12 545.877 477.22 545.21 477.22ZM555.41 477.22C553.65 477.22 552.277 476.747 551.29 475.8C550.304 474.853 549.81 473.567 549.81 471.94C549.81 470.887 550.017 469.967 550.43 469.18C550.857 468.393 551.444 467.78 552.19 467.34C552.95 466.887 553.837 466.66 554.85 466.66C555.85 466.66 556.684 466.873 557.35 467.3C558.03 467.727 558.537 468.327 558.87 469.1C559.217 469.86 559.39 470.747 559.39 471.76V472.46H552.29V470.96H557.19L556.85 471.24C556.85 470.4 556.677 469.767 556.33 469.34C555.997 468.9 555.51 468.68 554.87 468.68C554.164 468.68 553.617 468.94 553.23 469.46C552.857 469.98 552.67 470.727 552.67 471.7V472.02C552.67 473.007 552.91 473.74 553.39 474.22C553.884 474.7 554.59 474.94 555.51 474.94C556.057 474.94 556.57 474.873 557.05 474.74C557.544 474.593 558.01 474.367 558.45 474.06L559.29 476.06C558.784 476.433 558.197 476.72 557.53 476.92C556.877 477.12 556.17 477.22 555.41 477.22ZM565.286 477.22C564.406 477.22 563.626 477.007 562.946 476.58C562.28 476.153 561.753 475.547 561.366 474.76C560.993 473.973 560.806 473.027 560.806 471.92C560.806 470.827 560.993 469.887 561.366 469.1C561.74 468.313 562.266 467.713 562.946 467.3C563.626 466.873 564.406 466.66 565.286 466.66C566.086 466.66 566.8 466.853 567.426 467.24C568.066 467.613 568.493 468.12 568.706 468.76H568.446V462.28H571.466V477H568.486V475.02H568.746C568.533 475.687 568.106 476.22 567.466 476.62C566.826 477.02 566.1 477.22 565.286 477.22ZM566.186 474.94C566.88 474.94 567.44 474.693 567.866 474.2C568.293 473.707 568.506 472.947 568.506 471.92C568.506 470.893 568.293 470.14 567.866 469.66C567.44 469.18 566.88 468.94 566.186 468.94C565.493 468.94 564.926 469.18 564.486 469.66C564.06 470.14 563.846 470.893 563.846 471.92C563.846 472.947 564.06 473.707 564.486 474.2C564.926 474.693 565.493 474.94 566.186 474.94ZM578.743 477.22C577.663 477.22 576.723 477.007 575.923 476.58C575.136 476.14 574.523 475.527 574.083 474.74C573.656 473.953 573.443 473.013 573.443 471.92C573.443 470.84 573.656 469.907 574.083 469.12C574.523 468.333 575.136 467.727 575.923 467.3C576.723 466.873 577.663 466.66 578.743 466.66C579.823 466.66 580.763 466.873 581.563 467.3C582.363 467.727 582.976 468.333 583.403 469.12C583.843 469.907 584.063 470.84 584.063 471.92C584.063 473.013 583.843 473.953 583.403 474.74C582.976 475.527 582.363 476.14 581.563 476.58C580.763 477.007 579.823 477.22 578.743 477.22ZM578.743 474.94C579.436 474.94 579.983 474.693 580.383 474.2C580.796 473.707 581.003 472.947 581.003 471.92C581.003 470.893 580.796 470.14 580.383 469.66C579.983 469.18 579.436 468.94 578.743 468.94C578.05 468.94 577.496 469.18 577.083 469.66C576.683 470.14 576.483 470.893 576.483 471.92C576.483 472.947 576.683 473.707 577.083 474.2C577.496 474.693 578.05 474.94 578.743 474.94ZM586.013 477V469.5C586.013 469.073 586 468.64 585.973 468.2C585.947 467.747 585.907 467.3 585.853 466.86H588.753L588.973 468.74H588.733C589.067 468.073 589.54 467.56 590.153 467.2C590.767 466.84 591.48 466.66 592.293 466.66C593.48 466.66 594.367 467.007 594.953 467.7C595.553 468.38 595.853 469.44 595.853 470.88V477H592.833V471.02C592.833 470.287 592.7 469.767 592.433 469.46C592.167 469.153 591.767 469 591.233 469C590.567 469 590.033 469.213 589.633 469.64C589.233 470.053 589.033 470.613 589.033 471.32V477H586.013ZM598.279 477V466.86H601.299V477H598.279ZM598.159 465.2V462.38H601.399V465.2H598.159ZM607.707 477.22C606.827 477.22 606.054 477.007 605.387 476.58C604.721 476.153 604.201 475.547 603.827 474.76C603.454 473.973 603.267 473.027 603.267 471.92C603.267 470.827 603.454 469.887 603.827 469.1C604.201 468.313 604.721 467.713 605.387 467.3C606.054 466.873 606.827 466.66 607.707 466.66C608.521 466.66 609.247 466.86 609.887 467.26C610.541 467.647 610.967 468.173 611.167 468.84H610.947L611.187 466.86H614.087C614.047 467.3 614.007 467.747 613.967 468.2C613.941 468.64 613.927 469.073 613.927 469.5V477H610.927L610.907 475.1H611.147C610.934 475.74 610.507 476.253 609.867 476.64C609.227 477.027 608.507 477.22 607.707 477.22ZM608.627 474.94C609.321 474.94 609.881 474.693 610.307 474.2C610.734 473.707 610.947 472.947 610.947 471.92C610.947 470.893 610.734 470.14 610.307 469.66C609.881 469.18 609.321 468.94 608.627 468.94C607.934 468.94 607.374 469.18 606.947 469.66C606.521 470.14 606.307 470.893 606.307 471.92C606.307 472.947 606.514 473.707 606.927 474.2C607.354 474.693 607.921 474.94 608.627 474.94Z"
          fill="#E5876C"/>
</svg>
