<svg width="167" height="308" viewBox="0 0 167 308" fill="none" xmlns="http://www.w3.org/2000/svg">
<path d="M45.8816 211.398V191.245C45.8816 178.667 48.3115 167.089 53.1712 156.512C58.0309 145.649 66.3211 134.214 78.0416 122.208C86.3317 113.632 92.192 106.057 95.6224 99.4816C99.0528 92.6208 100.768 86.0459 100.768 79.7568C100.768 71.4667 97.6235 65.0347 91.3344 60.4608C85.0453 55.8869 76.3264 53.6 65.1776 53.6C54.0288 53.6 42.7371 55.4581 31.3024 59.1744C20.1536 62.8907 9.71947 67.7504 0 73.7536V19.296C10.2912 13.2928 22.1547 8.57599 35.5904 5.14558C49.312 1.71519 62.6048 0 75.4688 0C92.6208 0 108.058 2.5728 121.779 7.7184C135.787 12.5781 146.65 20.1536 154.368 30.4448C162.372 40.736 166.374 54.1717 166.374 70.752C166.374 80.1856 164.659 89.3333 161.229 98.1952C157.798 107.057 152.939 115.347 146.65 123.066C140.646 130.784 133.5 138.074 125.21 144.934C111.202 156.369 101.483 166.231 96.0512 174.522C90.9056 182.526 87.7611 190.53 86.6176 198.534L84.9024 211.398H45.8816ZM30.4448 307.021V238.413H100.339V307.021H30.4448Z" fill="#E5876C"/>
</svg>
