<svg width="220" height="226" viewBox="0 0 220 226" fill="none" xmlns="http://www.w3.org/2000/svg">
<path fill-rule="evenodd" clip-rule="evenodd" d="M113.978 15.1819C135.795 13.5759 156.149 22.7765 173.567 35.9852C194.382 51.7704 217.711 69.452 219.836 95.4574C222.054 122.594 201.311 144.328 184.149 165.492C163.933 190.421 146.113 226.059 113.978 226C81.8532 225.941 65.0183 189.539 44.065 165.235C25.5574 143.768 -2.84715 123.453 1.4332 95.4574C5.60864 68.1476 40.0569 60.2188 62.5769 44.1559C79.2198 32.2849 93.5776 16.6838 113.978 15.1819Z" fill="#FFE7E0"/>
<path fill-rule="evenodd" clip-rule="evenodd" d="M112.978 0.181904C134.795 -1.42414 155.149 7.77651 172.567 20.9852C193.382 36.7704 216.711 54.452 218.836 80.4574C221.054 107.594 200.311 129.328 183.149 150.492C162.933 175.421 145.113 211.059 112.978 211C80.8532 210.941 64.0183 174.539 43.065 150.235C24.5574 128.768 -3.84715 108.453 0.433202 80.4574C4.60864 53.1476 39.0569 45.2188 61.5769 29.1559C78.2198 17.2849 92.5776 1.68375 112.978 0.181904Z" fill="#FAF0EF"/>
<path d="M136.622 96.5C151.441 96.5 163.468 84.516 163.468 69.75C163.468 54.984 151.441 43 136.622 43C121.804 43 109.777 54.984 109.777 69.75C109.777 84.516 121.804 96.5 136.622 96.5ZM165.884 126.46C163.79 124.32 161.159 123.25 158.099 123.25H122.229C121.095 123.25 119.968 123.059 118.897 122.684L111.834 120.214C110.462 119.734 109.74 118.231 110.223 116.859C110.714 115.465 112.258 114.75 113.639 115.277L119.085 117.354C120.03 117.715 121.034 117.9 122.046 117.9H135.549C137.428 117.9 138.931 117.151 140.166 115.921C141.401 114.69 141.992 113.192 141.992 111.534C141.992 108.645 140.596 106.665 137.804 105.541L100.258 91.6985C99.2739 91.3357 98.2334 91.15 97.1846 91.15C92.2781 91.15 88.3005 95.1276 88.3005 100.034V127.219C88.3005 134.369 93.0434 140.65 99.9194 142.608L120.838 148.563C124.116 149.497 127.607 149.359 130.801 148.17L161.182 136.86C165.898 135.104 169.404 130.057 165.884 126.46ZM77.5623 101.931C77.5623 95.9769 72.7354 91.15 66.7812 91.15C60.8269 91.15 56 95.9769 56 101.931V139.219C56 145.173 60.8269 150 66.7812 150C72.7354 150 77.5623 145.173 77.5623 139.219V101.931Z" fill="#E5876C"/>
</svg>
