<svg width="261" height="219" viewBox="0 0 261 219" fill="none" xmlns="http://www.w3.org/2000/svg">
<path fill-rule="evenodd" clip-rule="evenodd" d="M135.845 16.9532C167.32 16.4384 201.597 6.55386 226.225 26.0905C252.468 46.908 260.107 82.7334 260.89 116.148C261.693 150.474 258.736 190.766 230.543 210.508C203.625 229.356 167.634 212.152 135.845 203.707C114.41 198.013 99.3643 183.203 81.0126 170.784C54.4809 152.83 13.6191 147.296 6.45094 116.148C-1.06118 83.5046 21.7451 49.4209 48.3839 28.9993C72.633 10.4098 105.254 17.4536 135.845 16.9532Z" fill="#FFE7E0"/>
<path fill-rule="evenodd" clip-rule="evenodd" d="M130.845 2.95325C162.32 2.43843 196.597 -7.44614 221.225 12.0905C247.468 32.908 255.107 68.7334 255.89 102.148C256.693 136.474 253.736 176.766 225.543 196.508C198.625 215.356 162.634 198.152 130.845 189.707C109.41 184.013 94.3643 169.203 76.0126 156.784C49.4809 138.83 8.61911 133.296 1.45094 102.148C-6.06118 69.5046 16.7451 35.4209 43.3839 14.9993C67.633 -3.59025 100.254 3.45361 130.845 2.95325Z" fill="#FAF0EF"/>
<path d="M157.281 95.5C157.281 99.6101 156.062 103.628 153.779 107.045C151.496 110.463 148.25 113.126 144.453 114.699C140.655 116.272 136.477 116.684 132.446 115.882C128.415 115.08 124.712 113.101 121.805 110.195C118.899 107.288 116.92 103.585 116.118 99.5542C115.316 95.5231 115.728 91.3446 117.301 87.5474C118.874 83.7501 121.537 80.5045 124.955 78.221C128.372 75.9376 132.39 74.7188 136.5 74.7188C142.012 74.7188 147.297 76.9082 151.195 80.8054C155.092 84.7027 157.281 89.9885 157.281 95.5ZM198.844 62.25V128.75C198.844 129.852 198.406 130.909 197.626 131.689C196.847 132.468 195.79 132.906 194.688 132.906H78.3125C77.2102 132.906 76.153 132.468 75.3736 131.689C74.5941 130.909 74.1562 129.852 74.1562 128.75V62.25C74.1562 61.1477 74.5941 60.0905 75.3736 59.3111C76.153 58.5316 77.2102 58.0937 78.3125 58.0938H194.688C195.79 58.0938 196.847 58.5316 197.626 59.3111C198.406 60.0905 198.844 61.1477 198.844 62.25ZM190.531 86.3303C185.812 84.9348 181.517 82.3808 178.037 78.9009C174.557 75.4209 172.003 71.1257 170.607 66.4062H102.393C100.997 71.1257 98.4433 75.4209 94.9634 78.9009C91.4834 82.3808 87.1882 84.9348 82.4688 86.3303V104.67C87.1882 106.065 91.4834 108.619 94.9634 112.099C98.4433 115.579 100.997 119.874 102.393 124.594H170.607C172.003 119.874 174.557 115.579 178.037 112.099C181.517 108.619 185.812 106.065 190.531 104.67V86.3303Z" fill="#E5876C"/>
</svg>
