<svg width="263" height="259" viewBox="0 0 263 259" fill="none" xmlns="http://www.w3.org/2000/svg">
<g filter="url(#filter0_f_169_3049)">
<path fill-rule="evenodd" clip-rule="evenodd" d="M142.51 24.2725C168.611 25.5328 195.06 31.9719 213.072 50.9745C230.717 69.5905 232.667 96.2066 234.951 121.799C237.573 151.184 245.792 183.912 226.954 206.558C207.313 230.168 172.433 239.56 142.51 232.922C116.013 227.044 108.403 194.537 88.6372 175.874C67.5584 155.971 29.978 150.382 24.8223 121.799C19.4278 91.8921 41.4667 63.166 64.8172 43.8158C86.2202 26.0793 114.788 22.9339 142.51 24.2725Z" fill="#FFE7E0" fill-opacity="0.5"/>
</g>
<ellipse cx="146.548" cy="89.6452" rx="23.0645" ry="22.6452" fill="#E5876C"/>
<path d="M181.097 171C187.724 171 193.246 165.544 191.585 159.128C191.048 157.054 190.37 155.015 189.553 153.026C187.214 147.328 183.785 142.15 179.463 137.789C175.141 133.427 170.009 129.968 164.362 127.607C158.714 125.247 152.661 124.032 146.548 124.032C140.436 124.032 134.383 125.247 128.735 127.607C123.088 129.968 117.956 133.427 113.634 137.789C109.311 142.15 105.883 147.328 103.543 153.026C102.727 155.015 102.049 157.054 101.512 159.128C99.8504 165.544 105.373 171 112 171H146.548H181.097Z" fill="#E5876C"/>
<defs>
<filter id="filter0_f_169_3049" x="0" y="0" width="263" height="259" filterUnits="userSpaceOnUse" color-interpolation-filters="sRGB">
<feFlood flood-opacity="0" result="BackgroundImageFix"/>
<feBlend mode="normal" in="SourceGraphic" in2="BackgroundImageFix" result="shape"/>
<feGaussianBlur stdDeviation="12" result="effect1_foregroundBlur_169_3049"/>
</filter>
</defs>
</svg>
