<svg width="311" height="255" viewBox="0 0 311 255" fill="none" xmlns="http://www.w3.org/2000/svg">
<g filter="url(#filter0_f_302_1749)">
<path fill-rule="evenodd" clip-rule="evenodd" d="M162.879 24.0152C189.017 23.3976 209.891 41.6856 230.132 58.2499C253.754 77.581 285.882 95.0429 286.97 125.564C288.069 156.385 258.601 177.903 235.108 197.859C214.119 215.688 190.4 230.286 162.879 230.973C134.677 231.676 109.428 218.628 86.9581 201.555C59.7624 180.891 21.2914 159.619 24.1506 125.564C27.0052 91.5643 71.2137 81.496 98.7291 61.3549C119.486 46.1611 137.172 24.6227 162.879 24.0152Z" fill="#FFE7E0" fill-opacity="0.5"/>
</g>
<path fill-rule="evenodd" clip-rule="evenodd" d="M157.727 117.182V88.5455C157.727 86.0138 156.722 83.5859 154.931 81.7958C153.141 80.0057 150.713 79 148.182 79H119.545C117.014 79 114.586 80.0057 112.796 81.7958C111.006 83.5859 110 86.0138 110 88.5455V117.182C110 119.713 111.006 122.141 112.796 123.931C114.586 125.722 117.014 126.727 119.545 126.727H148.182C150.713 126.727 153.141 125.722 154.931 123.931C156.722 122.141 157.727 119.713 157.727 117.182ZM119.545 136.273H148.182C150.713 136.273 153.141 137.278 154.931 139.069C156.722 140.859 157.727 143.287 157.727 145.818V174.455C157.727 176.986 156.722 179.414 154.931 181.204C153.141 182.994 150.713 184 148.182 184H119.545C117.014 184 114.586 182.994 112.796 181.204C111.006 179.414 110 176.986 110 174.455V145.818C110 143.287 111.006 140.859 112.796 139.069C114.586 137.278 117.014 136.273 119.545 136.273ZM176.818 79H205.455C207.986 79 210.414 80.0057 212.204 81.7958C213.994 83.5859 215 86.0138 215 88.5455V117.182C215 119.713 213.994 122.141 212.204 123.931C210.414 125.722 207.986 126.727 205.455 126.727H176.818C174.287 126.727 171.859 125.722 170.069 123.931C168.278 122.141 167.273 119.713 167.273 117.182V88.5455C167.273 86.0138 168.278 83.5859 170.069 81.7958C171.859 80.0057 174.287 79 176.818 79ZM175.42 163.511C174.525 164.406 173.311 164.909 172.045 164.909C170.78 164.909 169.566 164.406 168.671 163.511C167.776 162.616 167.273 161.402 167.273 160.136V141.045C167.273 139.78 167.776 138.566 168.671 137.671C169.566 136.776 170.78 136.273 172.045 136.273C173.311 136.273 174.525 136.776 175.42 137.671C176.315 138.566 176.818 139.78 176.818 141.045V160.136C176.818 161.402 176.315 162.616 175.42 163.511ZM195.909 145.818H210.227C211.493 145.818 212.707 146.321 213.602 147.216C214.497 148.111 215 149.325 215 150.591C215 151.857 214.497 153.071 213.602 153.966C212.707 154.861 211.493 155.364 210.227 155.364H195.909V179.227C195.909 180.493 195.406 181.707 194.511 182.602C193.616 183.497 192.402 184 191.136 184H172.045C170.78 184 169.566 183.497 168.671 182.602C167.776 181.707 167.273 180.493 167.273 179.227C167.273 177.961 167.776 176.748 168.671 175.852C169.566 174.957 170.78 174.455 172.045 174.455H186.364V141.045C186.364 139.78 186.866 138.566 187.762 137.671C188.657 136.776 189.871 136.273 191.136 136.273C192.402 136.273 193.616 136.776 194.511 137.671C195.406 138.566 195.909 139.78 195.909 141.045V145.818ZM206.852 166.307C207.748 165.412 208.961 164.909 210.227 164.909C211.493 164.909 212.707 165.412 213.602 166.307C214.497 167.202 215 168.416 215 169.682V179.227C215 180.493 214.497 181.707 213.602 182.602C212.707 183.497 211.493 184 210.227 184C208.961 184 207.748 183.497 206.852 182.602C205.957 181.707 205.455 180.493 205.455 179.227V169.682C205.455 168.416 205.957 167.202 206.852 166.307ZM123 87C120.239 87 118 89.2386 118 92V114C118 116.761 120.239 119 123 119H145C147.761 119 150 116.761 150 114V92C150 89.2386 147.761 87 145 87H123ZM118 149C118 146.239 120.239 144 123 144H145C147.761 144 150 146.239 150 149V171C150 173.761 147.761 176 145 176H123C120.239 176 118 173.761 118 171V149ZM180 87C177.239 87 175 89.2386 175 92V114C175 116.761 177.239 119 180 119H202C204.761 119 207 116.761 207 114V92C207 89.2386 204.761 87 202 87H180Z" fill="#E5876C"/>
<rect x="127" y="96" width="14" height="14" rx="3" fill="#E5876C"/>
<rect x="184" y="96" width="14" height="14" rx="3" fill="#E5876C"/>
<rect x="127" y="153" width="14" height="14" rx="3" fill="#E5876C"/>
<defs>
<filter id="filter0_f_302_1749" x="0" y="0" width="311" height="255" filterUnits="userSpaceOnUse" color-interpolation-filters="sRGB">
<feFlood flood-opacity="0" result="BackgroundImageFix"/>
<feBlend mode="normal" in="SourceGraphic" in2="BackgroundImageFix" result="shape"/>
<feGaussianBlur stdDeviation="12" result="effect1_foregroundBlur_302_1749"/>
</filter>
</defs>
</svg>
