<svg width="263" height="222" viewBox="0 0 263 222" fill="none" xmlns="http://www.w3.org/2000/svg">
<path fill-rule="evenodd" clip-rule="evenodd" d="M138.879 15.0152C165.017 14.3976 185.891 32.6856 206.132 49.2499C229.754 68.581 261.882 86.0429 262.97 116.564C264.069 147.385 234.601 168.903 211.108 188.859C190.119 206.688 166.4 221.286 138.879 221.973C110.677 222.676 85.4281 209.628 62.9581 192.555C35.7624 171.891 -2.70863 150.619 0.150604 116.564C3.00518 82.5643 47.2137 72.496 74.7291 52.3549C95.4857 37.1611 113.172 15.6227 138.879 15.0152Z" fill="#FFE7E0"/>
<path fill-rule="evenodd" clip-rule="evenodd" d="M138.879 0.0152244C165.017 -0.60241 185.891 17.6856 206.132 34.2499C229.754 53.581 261.882 71.0429 262.97 101.564C264.069 132.385 234.601 153.903 211.108 173.859C190.119 191.688 166.4 206.286 138.879 206.973C110.677 207.676 85.4281 194.628 62.9581 177.555C35.7624 156.891 -2.70863 135.619 0.150604 101.564C3.00518 67.5643 47.2137 57.496 74.7291 37.3549C95.4857 22.1611 113.172 0.622696 138.879 0.0152244Z" fill="#FAF0EF"/>
<path fill-rule="evenodd" clip-rule="evenodd" d="M133.727 93.1818V64.5455C133.727 62.0138 132.722 59.5859 130.931 57.7958C129.141 56.0057 126.713 55 124.182 55H95.5455C93.0138 55 90.5859 56.0057 88.7958 57.7958C87.0057 59.5859 86 62.0138 86 64.5455V93.1818C86 95.7134 87.0057 98.1413 88.7958 99.9315C90.5859 101.722 93.0138 102.727 95.5455 102.727H124.182C126.713 102.727 129.141 101.722 130.931 99.9315C132.722 98.1413 133.727 95.7134 133.727 93.1818ZM95.5455 112.273H124.182C126.713 112.273 129.141 113.278 130.931 115.069C132.722 116.859 133.727 119.287 133.727 121.818V150.455C133.727 152.986 132.722 155.414 130.931 157.204C129.141 158.994 126.713 160 124.182 160H95.5455C93.0138 160 90.5859 158.994 88.7958 157.204C87.0057 155.414 86 152.986 86 150.455V121.818C86 119.287 87.0057 116.859 88.7958 115.069C90.5859 113.278 93.0138 112.273 95.5455 112.273ZM152.818 55H181.455C183.986 55 186.414 56.0057 188.204 57.7958C189.994 59.5859 191 62.0138 191 64.5455V93.1818C191 95.7134 189.994 98.1413 188.204 99.9315C186.414 101.722 183.986 102.727 181.455 102.727H152.818C150.287 102.727 147.859 101.722 146.069 99.9315C144.278 98.1413 143.273 95.7134 143.273 93.1818V64.5455C143.273 62.0138 144.278 59.5859 146.069 57.7958C147.859 56.0057 150.287 55 152.818 55ZM151.42 139.511C150.525 140.406 149.311 140.909 148.045 140.909C146.78 140.909 145.566 140.406 144.671 139.511C143.776 138.616 143.273 137.402 143.273 136.136V117.045C143.273 115.78 143.776 114.566 144.671 113.671C145.566 112.776 146.78 112.273 148.045 112.273C149.311 112.273 150.525 112.776 151.42 113.671C152.315 114.566 152.818 115.78 152.818 117.045V136.136C152.818 137.402 152.315 138.616 151.42 139.511ZM171.909 121.818H186.227C187.493 121.818 188.707 122.321 189.602 123.216C190.497 124.111 191 125.325 191 126.591C191 127.857 190.497 129.071 189.602 129.966C188.707 130.861 187.493 131.364 186.227 131.364H171.909V155.227C171.909 156.493 171.406 157.707 170.511 158.602C169.616 159.497 168.402 160 167.136 160H148.045C146.78 160 145.566 159.497 144.671 158.602C143.776 157.707 143.273 156.493 143.273 155.227C143.273 153.961 143.776 152.748 144.671 151.852C145.566 150.957 146.78 150.455 148.045 150.455H162.364V117.045C162.364 115.78 162.866 114.566 163.762 113.671C164.657 112.776 165.871 112.273 167.136 112.273C168.402 112.273 169.616 112.776 170.511 113.671C171.406 114.566 171.909 115.78 171.909 117.045V121.818ZM182.852 142.307C183.748 141.412 184.961 140.909 186.227 140.909C187.493 140.909 188.707 141.412 189.602 142.307C190.497 143.202 191 144.416 191 145.682V155.227C191 156.493 190.497 157.707 189.602 158.602C188.707 159.497 187.493 160 186.227 160C184.961 160 183.748 159.497 182.852 158.602C181.957 157.707 181.455 156.493 181.455 155.227V145.682C181.455 144.416 181.957 143.202 182.852 142.307ZM99 62C96.2386 62 94 64.2386 94 67V89C94 91.7614 96.2386 94 99 94H121C123.761 94 126 91.7614 126 89V67C126 64.2386 123.761 62 121 62H99ZM94 124C94 121.239 96.2386 119 99 119H121C123.761 119 126 121.239 126 124V146C126 148.761 123.761 151 121 151H99C96.2386 151 94 148.761 94 146V124ZM156 62C153.239 62 151 64.2386 151 67V89C151 91.7614 153.239 94 156 94H178C180.761 94 183 91.7614 183 89V67C183 64.2386 180.761 62 178 62H156Z" fill="#E5876C"/>
<rect x="103" y="71" width="14" height="14" rx="3" fill="#E5876C"/>
<rect x="160" y="71" width="14" height="14" rx="3" fill="#E5876C"/>
<rect x="103" y="128" width="14" height="14" rx="3" fill="#E5876C"/>
</svg>
