<svg width="206" height="215" viewBox="0 0 206 215" fill="none" xmlns="http://www.w3.org/2000/svg">
<path fill-rule="evenodd" clip-rule="evenodd" d="M121.803 16.9154C146.966 16.5005 176.053 6.9872 194.012 24.7364C212.014 42.5282 204.836 72.0841 203.269 97.4318C201.846 120.47 198.692 142.695 185.553 161.612C169.122 185.27 150.341 211.914 121.803 214.724C91.8685 217.672 65.9559 196.466 44.2279 175.529C21.8837 153.998 -1.53277 128.528 0.0787128 97.4318C1.64964 67.1185 26.722 43.748 51.9209 27.0798C72.369 13.554 97.3389 17.3189 121.803 16.9154Z" fill="#FFE7E0"/>
<path fill-rule="evenodd" clip-rule="evenodd" d="M121.803 2.91544C146.966 2.50046 176.053 -7.0128 194.012 10.7364C212.014 28.5282 204.836 58.0841 203.269 83.4318C201.846 106.47 198.692 128.695 185.553 147.612C169.122 171.27 150.341 197.914 121.803 200.724C91.8685 203.672 65.9559 182.466 44.2279 161.529C21.8837 139.998 -1.53277 114.528 0.0787128 83.4318C1.64964 53.1185 26.722 29.748 51.9209 13.0798C72.369 -0.445991 97.3389 3.31889 121.803 2.91544Z" fill="#FAF0EF"/>
<path d="M136.54 79H127V49C127 45.7 124.3 43 121 43H97C93.7 43 91 45.7 91 49V79H81.46C76.12 79 73.42 85.48 77.2 89.26L104.74 116.8C107.08 119.14 110.86 119.14 113.2 116.8L140.74 89.26C144.52 85.48 141.88 79 136.54 79ZM67 139C67 142.3 69.7 145 73 145H145C148.3 145 151 142.3 151 139C151 135.7 148.3 133 145 133H73C69.7 133 67 135.7 67 139Z" fill="#E5876C"/>
</svg>
