<svg width="215" height="225" viewBox="0 0 215 225" fill="none" xmlns="http://www.w3.org/2000/svg">
<path fill-rule="evenodd" clip-rule="evenodd" d="M118.51 14.2725C144.611 15.5328 171.06 21.9719 189.072 40.9745C206.717 59.5905 208.667 86.2066 210.951 111.799C213.573 141.184 221.792 173.912 202.954 196.558C183.313 220.168 148.433 229.56 118.51 222.922C92.0133 217.044 60.5827 197.163 40.8172 178.5C19.7383 158.597 5.97802 140.382 0.822339 111.799C-4.57218 81.8921 17.4667 53.166 40.8172 33.8158C62.2202 16.0793 90.7875 12.9339 118.51 14.2725Z" fill="#FFE7E0"/>
<path fill-rule="evenodd" clip-rule="evenodd" d="M118.51 0.272524C144.611 1.53284 171.06 7.9719 189.072 26.9745C206.717 45.5905 208.667 72.2066 210.951 97.7992C213.573 127.184 221.792 159.912 202.954 182.558C183.313 206.168 148.433 215.56 118.51 208.922C92.0133 203.044 60.5827 183.163 40.8172 164.5C19.7383 144.597 5.97802 126.382 0.822339 97.7992C-4.57218 67.8921 17.4667 39.166 40.8172 19.8158C62.2202 2.0793 90.7875 -1.06612 118.51 0.272524Z" fill="#FAF0EF"/>
<ellipse cx="115.548" cy="65.6452" rx="23.0645" ry="22.6452" fill="#E5876C"/>
<path d="M150.097 147C156.724 147 162.246 141.544 160.585 135.128C160.048 133.054 159.37 131.015 158.553 129.026C156.214 123.328 152.785 118.15 148.463 113.789C144.141 109.427 139.009 105.968 133.362 103.607C127.714 101.247 121.661 100.032 115.548 100.032C109.436 100.032 103.383 101.247 97.7351 103.607C92.0876 105.968 86.9561 109.427 82.6337 113.789C78.3113 118.15 74.8826 123.328 72.5433 129.026C71.7268 131.015 71.0486 133.054 70.5116 135.128C68.8504 141.544 74.3726 147 81 147H115.548H150.097Z" fill="#E5876C"/>
</svg>
