<svg width="213" height="227" viewBox="0 0 213 227" fill="none" xmlns="http://www.w3.org/2000/svg">
<path fill-rule="evenodd" clip-rule="evenodd" d="M106.922 13.0421C135.105 13.8255 162.091 27.0647 179.943 48.8257C196.348 68.8231 211.003 95.849 212.499 121.642C214.145 150.031 207.289 181.658 188.906 203.397C169.844 225.938 136.491 226.867 106.922 226.992C77.1866 227.117 44.1643 226.105 24.2393 204.094C4.81645 182.637 0.00832188 150.531 1.00009 121.642C1.94046 94.2508 11.6068 65.2687 29.7132 44.6494C48.7663 22.952 78.012 12.2384 106.922 13.0421Z" fill="#FFE7E0"/>
<path fill-rule="evenodd" clip-rule="evenodd" d="M106.922 0.0420835C135.105 0.825541 162.091 14.0647 179.943 35.8257C196.348 55.8231 211.003 82.849 212.499 108.642C214.145 137.031 207.289 168.658 188.906 190.397C169.844 212.938 136.491 213.867 106.922 213.992C77.1866 214.117 44.1643 213.105 24.2393 191.094C4.81645 169.637 0.00832188 137.531 1.00009 108.642C1.94046 81.2508 11.6068 52.2687 29.7132 31.6494C48.7663 9.95201 78.012 -0.761596 106.922 0.0420835Z" fill="#FAF0EF"/>
<path d="M110.583 55.4458V72.3633C129.511 75.0992 144.083 91.2908 144.083 111C144.083 116.025 143.078 120.771 141.403 125.182L155.92 133.724C159.047 126.801 160.833 119.096 160.833 111C160.833 82.0783 138.779 58.2375 110.583 55.4458ZM105 150.083C83.3925 150.083 65.9167 132.607 65.9167 111C65.9167 91.2908 80.4892 75.0992 99.4167 72.3633V55.4458C71.165 58.2375 49.1667 82.0225 49.1667 111C49.1667 141.82 74.1242 166.833 104.944 166.833C123.425 166.833 139.784 157.844 149.946 143.997L135.429 135.455C131.787 140.028 127.158 143.719 121.889 146.252C116.62 148.785 110.846 150.095 105 150.083Z" fill="#E5876C"/>
</svg>
