<svg width="254" height="249" viewBox="0 0 254 249" fill="none" xmlns="http://www.w3.org/2000/svg">
<g filter="url(#filter0_f_302_1748)">
<path fill-rule="evenodd" clip-rule="evenodd" d="M145.803 26.9154C170.966 26.5005 200.053 16.9872 218.012 34.7364C236.014 52.5282 228.836 82.0841 227.269 107.432C225.846 130.47 222.692 152.695 209.553 171.612C193.122 195.27 174.341 221.914 145.803 224.724C115.868 227.672 89.9559 206.466 68.2279 185.529C45.8837 163.998 22.4672 138.528 24.0787 107.432C25.6496 77.1185 50.722 53.748 75.9209 37.0798C96.369 23.554 121.339 27.3189 145.803 26.9154Z" fill="#FFE7E0" fill-opacity="0.5"/>
</g>
<path d="M160.54 107H151V77C151 73.7 148.3 71 145 71H121C117.7 71 115 73.7 115 77V107H105.46C100.12 107 97.42 113.48 101.2 117.26L128.74 144.8C131.08 147.14 134.86 147.14 137.2 144.8L164.74 117.26C168.52 113.48 165.88 107 160.54 107ZM91 167C91 170.3 93.7 173 97 173H169C172.3 173 175 170.3 175 167C175 163.7 172.3 161 169 161H97C93.7 161 91 163.7 91 167Z" fill="#E5876C"/>
<defs>
<filter id="filter0_f_302_1748" x="0" y="0" width="254" height="249" filterUnits="userSpaceOnUse" color-interpolation-filters="sRGB">
<feFlood flood-opacity="0" result="BackgroundImageFix"/>
<feBlend mode="normal" in="SourceGraphic" in2="BackgroundImageFix" result="shape"/>
<feGaussianBlur stdDeviation="12" result="effect1_foregroundBlur_302_1748"/>
</filter>
</defs>
</svg>
