<svg width="87" height="20" viewBox="0 0 87 20" fill="none" xmlns="http://www.w3.org/2000/svg">
<path d="M4.7 15V3.44H0.22V0.899999H12.3V3.44H7.82V15H4.7ZM17.0166 15.22C15.9366 15.22 14.9966 15.0067 14.1966 14.58C13.4099 14.14 12.7966 13.5267 12.3566 12.74C11.9299 11.9533 11.7166 11.0133 11.7166 9.92C11.7166 8.84 11.9299 7.90667 12.3566 7.12C12.7966 6.33333 13.4099 5.72667 14.1966 5.3C14.9966 4.87333 15.9366 4.66 17.0166 4.66C18.0966 4.66 19.0366 4.87333 19.8366 5.3C20.6366 5.72667 21.2499 6.33333 21.6766 7.12C22.1166 7.90667 22.3366 8.84 22.3366 9.92C22.3366 11.0133 22.1166 11.9533 21.6766 12.74C21.2499 13.5267 20.6366 14.14 19.8366 14.58C19.0366 15.0067 18.0966 15.22 17.0166 15.22ZM17.0166 12.94C17.7099 12.94 18.2566 12.6933 18.6566 12.2C19.0699 11.7067 19.2766 10.9467 19.2766 9.92C19.2766 8.89333 19.0699 8.14 18.6566 7.66C18.2566 7.18 17.7099 6.94 17.0166 6.94C16.3232 6.94 15.7699 7.18 15.3566 7.66C14.9566 8.14 14.7566 8.89333 14.7566 9.92C14.7566 10.9467 14.9566 11.7067 15.3566 12.2C15.7699 12.6933 16.3232 12.94 17.0166 12.94ZM29.1069 19.48C28.1335 19.48 27.2669 19.38 26.5069 19.18C25.7469 18.9933 25.0669 18.7067 24.4669 18.32L25.0469 16.16C25.4202 16.4 25.8135 16.5933 26.2269 16.74C26.6535 16.9 27.0869 17.0133 27.5269 17.08C27.9802 17.16 28.4269 17.2 28.8669 17.2C29.7602 17.2 30.4269 16.9867 30.8669 16.56C31.3069 16.1333 31.5269 15.5267 31.5269 14.74V12.64H31.7269C31.5135 13.28 31.0869 13.7933 30.4469 14.18C29.8069 14.5667 29.0869 14.76 28.2869 14.76C27.3802 14.76 26.5869 14.5533 25.9069 14.14C25.2402 13.7267 24.7202 13.14 24.3469 12.38C23.9735 11.62 23.7869 10.7267 23.7869 9.7C23.7869 8.67333 23.9735 7.78 24.3469 7.02C24.7202 6.26 25.2402 5.68 25.9069 5.28C26.5869 4.86667 27.3802 4.66 28.2869 4.66C29.1002 4.66 29.8135 4.85333 30.4269 5.24C31.0535 5.61333 31.4735 6.11333 31.6869 6.74L31.5269 6.66L31.7269 4.86H34.6469C34.5935 5.3 34.5535 5.74667 34.5269 6.2C34.5002 6.64 34.4869 7.07333 34.4869 7.5V14.4C34.4869 16.04 34.0269 17.2933 33.1069 18.16C32.1869 19.04 30.8535 19.48 29.1069 19.48ZM29.1869 12.48C29.8935 12.48 30.4535 12.24 30.8669 11.76C31.2802 11.28 31.4869 10.5933 31.4869 9.7C31.4869 8.80667 31.2802 8.12667 30.8669 7.66C30.4535 7.18 29.8935 6.94 29.1869 6.94C28.4535 6.94 27.8735 7.18 27.4469 7.66C27.0335 8.12667 26.8269 8.80667 26.8269 9.7C26.8269 10.5933 27.0335 11.28 27.4469 11.76C27.8735 12.24 28.4535 12.48 29.1869 12.48ZM42.0431 15.22C40.2831 15.22 38.9098 14.7467 37.9231 13.8C36.9365 12.8533 36.4431 11.5667 36.4431 9.94C36.4431 8.88667 36.6498 7.96667 37.0631 7.18C37.4898 6.39333 38.0765 5.78 38.8231 5.34C39.5831 4.88667 40.4698 4.66 41.4831 4.66C42.4831 4.66 43.3165 4.87333 43.9831 5.3C44.6631 5.72667 45.1698 6.32667 45.5031 7.1C45.8498 7.86 46.0231 8.74667 46.0231 9.76V10.46H38.9231V8.96H43.8231L43.4831 9.24C43.4831 8.4 43.3098 7.76667 42.9631 7.34C42.6298 6.9 42.1431 6.68 41.5031 6.68C40.7965 6.68 40.2498 6.94 39.8631 7.46C39.4898 7.98 39.3031 8.72667 39.3031 9.7V10.02C39.3031 11.0067 39.5431 11.74 40.0231 12.22C40.5165 12.7 41.2231 12.94 42.1431 12.94C42.6898 12.94 43.2031 12.8733 43.6831 12.74C44.1765 12.5933 44.6431 12.3667 45.0831 12.06L45.9231 14.06C45.4165 14.4333 44.8298 14.72 44.1631 14.92C43.5098 15.12 42.8031 15.22 42.0431 15.22ZM52.6206 15.22C51.3006 15.22 50.3073 14.8933 49.6406 14.24C48.974 13.5733 48.6406 12.58 48.6406 11.26V7.12H46.7206V4.86H48.6406V2.38L51.6606 1.64V4.86H54.2606V7.12H51.6606V11.1C51.6606 11.74 51.794 12.18 52.0606 12.42C52.3273 12.66 52.6673 12.78 53.0806 12.78C53.334 12.78 53.5406 12.7667 53.7006 12.74C53.874 12.7 54.054 12.6467 54.2406 12.58V14.92C53.9873 15.0267 53.7206 15.1 53.4406 15.14C53.1606 15.1933 52.8873 15.22 52.6206 15.22ZM55.8103 15V0.279999H58.8303V6.76H58.5303C58.8503 6.08 59.3236 5.56 59.9503 5.2C60.577 4.84 61.297 4.66 62.1103 4.66C63.297 4.66 64.1836 5.00667 64.7703 5.7C65.357 6.38 65.6503 7.42667 65.6503 8.84V15H62.6303V8.98C62.6303 8.27333 62.497 7.76667 62.2303 7.46C61.977 7.15333 61.577 7 61.0303 7C60.3636 7 59.8303 7.20667 59.4303 7.62C59.0303 8.03333 58.8303 8.58667 58.8303 9.28V15H55.8103ZM73.1759 15.22C71.4159 15.22 70.0426 14.7467 69.0559 13.8C68.0693 12.8533 67.5759 11.5667 67.5759 9.94C67.5759 8.88667 67.7826 7.96667 68.1959 7.18C68.6226 6.39333 69.2093 5.78 69.9559 5.34C70.7159 4.88667 71.6026 4.66 72.6159 4.66C73.6159 4.66 74.4493 4.87333 75.1159 5.3C75.7959 5.72667 76.3026 6.32667 76.6359 7.1C76.9826 7.86 77.1559 8.74667 77.1559 9.76V10.46H70.0559V8.96H74.9559L74.6159 9.24C74.6159 8.4 74.4426 7.76667 74.0959 7.34C73.7626 6.9 73.2759 6.68 72.6359 6.68C71.9293 6.68 71.3826 6.94 70.9959 7.46C70.6226 7.98 70.4359 8.72667 70.4359 9.7V10.02C70.4359 11.0067 70.6759 11.74 71.1559 12.22C71.6493 12.7 72.3559 12.94 73.2759 12.94C73.8226 12.94 74.3359 12.8733 74.8159 12.74C75.3093 12.5933 75.7759 12.3667 76.2159 12.06L77.0559 14.06C76.5493 14.4333 75.9626 14.72 75.2959 14.92C74.6426 15.12 73.9359 15.22 73.1759 15.22ZM79.052 15V7.54C79.052 7.1 79.0387 6.65333 79.012 6.2C78.9987 5.74667 78.9654 5.3 78.912 4.86H81.812L82.152 7.82H81.692C81.8254 7.1 82.0387 6.50667 82.332 6.04C82.6387 5.57333 83.012 5.22667 83.452 5C83.9054 4.77333 84.4187 4.66 84.992 4.66C85.2454 4.66 85.4454 4.67333 85.592 4.7C85.7387 4.71333 85.8854 4.74667 86.032 4.8L86.012 7.46C85.732 7.34 85.492 7.26667 85.292 7.24C85.1054 7.2 84.8654 7.18 84.572 7.18C84.012 7.18 83.5454 7.28667 83.172 7.5C82.812 7.71333 82.5387 8.02667 82.352 8.44C82.1787 8.85333 82.092 9.35333 82.092 9.94V15H79.052Z" fill="#353535"/>
</svg>
